<svg width="56" height="56" viewBox="0 0 56 56" fill="none" xmlns="http://www.w3.org/2000/svg">
<mask id="mask0_959_10937" style="mask-type:alpha" maskUnits="userSpaceOnUse" x="19" y="19" width="18" height="18">
<path d="M35.0007 29.1673H29.1673V35.0007C29.1673 35.6423 28.6423 36.1673 28.0007 36.1673C27.359 36.1673 26.834 35.6423 26.834 35.0007V29.1673H21.0007C20.359 29.1673 19.834 28.6423 19.834 28.0007C19.834 27.359 20.359 26.834 21.0007 26.834H26.834V21.0007C26.834 20.359 27.359 19.834 28.0007 19.834C28.6423 19.834 29.1673 20.359 29.1673 21.0007V26.834H35.0007C35.6423 26.834 36.1673 27.359 36.1673 28.0007C36.1673 28.6423 35.6423 29.1673 35.0007 29.1673Z" fill="black"/>
</mask>
<g mask="url(#mask0_959_10937)">
<rect x="14" y="14" width="28" height="28" fill="#9098A1"/>
</g>
<path d="M8 2H48V-2H8V2ZM54 8V48H58V8H54ZM48 54H8V58H48V54ZM2 48V8H-2V48H2ZM8 54C4.68629 54 2 51.3137 2 48H-2C-2 53.5228 2.47715 58 8 58V54ZM54 48C54 51.3137 51.3137 54 48 54V58C53.5228 58 58 53.5228 58 48H54ZM48 2C51.3137 2 54 4.68629 54 8H58C58 2.47715 53.5228 -2 48 -2V2ZM8 -2C2.47715 -2 -2 2.47715 -2 8H2C2 4.68629 4.68629 2 8 2V-2Z" fill="#9098A1"/>
</svg>
