<svg width="25" height="24" viewBox="0 0 25 24" fill="none" xmlns="http://www.w3.org/2000/svg">
<path fill-rule="evenodd" clip-rule="evenodd" d="M12.7688 0C6.14201 0 0.768799 5.37321 0.768799 12C0.768799 18.6268 6.14201 24 12.7688 24C19.3956 24 24.7688 18.6268 24.7688 12C24.7688 5.37321 19.3956 0 12.7688 0ZM18.5706 16.0446C18.6509 16.1249 18.6938 16.2321 18.6938 16.3446C18.6938 16.4571 18.6509 16.5696 18.5706 16.6446L17.4134 17.8071C17.3277 17.8928 17.2206 17.9303 17.1134 17.9303C17.0063 17.9303 16.8938 17.8874 16.8134 17.8071L12.7688 13.7571L8.72949 17.8124C8.64914 17.8981 8.53664 17.9356 8.42949 17.9356C8.32235 17.9356 8.20985 17.8928 8.12949 17.8124L6.97235 16.6499C6.89199 16.5696 6.84914 16.4624 6.84914 16.3499C6.84914 16.2374 6.89199 16.1249 6.97235 16.0499L11.0277 11.9785L6.96164 7.96063C6.79556 7.79455 6.79556 7.52134 6.96164 7.35527L8.11878 6.19277C8.19914 6.11241 8.30628 6.06955 8.41878 6.06955C8.53128 6.06955 8.63842 6.11241 8.71878 6.19277L12.7741 10.1946L16.8295 6.19277C16.9098 6.11241 17.017 6.06955 17.1295 6.06955C17.242 6.06955 17.3491 6.11241 17.4295 6.19277L18.5866 7.35527C18.7527 7.52134 18.7527 7.79455 18.5866 7.96063L14.5206 11.9785L18.5706 16.0446Z" fill="#003566"/>
<path fill-rule="evenodd" clip-rule="evenodd" d="M12.7688 0C6.14201 0 0.768799 5.37321 0.768799 12C0.768799 18.6268 6.14201 24 12.7688 24C19.3956 24 24.7688 18.6268 24.7688 12C24.7688 5.37321 19.3956 0 12.7688 0ZM18.5706 16.0446C18.6509 16.1249 18.6938 16.2321 18.6938 16.3446C18.6938 16.4571 18.6509 16.5696 18.5706 16.6446L17.4134 17.8071C17.3277 17.8928 17.2206 17.9303 17.1134 17.9303C17.0063 17.9303 16.8938 17.8874 16.8134 17.8071L12.7688 13.7571L8.72949 17.8124C8.64914 17.8981 8.53664 17.9356 8.42949 17.9356C8.32235 17.9356 8.20985 17.8928 8.12949 17.8124L6.97235 16.6499C6.89199 16.5696 6.84914 16.4624 6.84914 16.3499C6.84914 16.2374 6.89199 16.1249 6.97235 16.0499L11.0277 11.9785L6.96164 7.96063C6.79556 7.79455 6.79556 7.52134 6.96164 7.35527L8.11878 6.19277C8.19914 6.11241 8.30628 6.06955 8.41878 6.06955C8.53128 6.06955 8.63842 6.11241 8.71878 6.19277L12.7741 10.1946L16.8295 6.19277C16.9098 6.11241 17.017 6.06955 17.1295 6.06955C17.242 6.06955 17.3491 6.11241 17.4295 6.19277L18.5866 7.35527C18.7527 7.52134 18.7527 7.79455 18.5866 7.96063L14.5206 11.9785L18.5706 16.0446Z" fill="black" fill-opacity="0.2"/>
<path fill-rule="evenodd" clip-rule="evenodd" d="M12.7688 0C6.14201 0 0.768799 5.37321 0.768799 12C0.768799 18.6268 6.14201 24 12.7688 24C19.3956 24 24.7688 18.6268 24.7688 12C24.7688 5.37321 19.3956 0 12.7688 0ZM18.5706 16.0446C18.6509 16.1249 18.6938 16.2321 18.6938 16.3446C18.6938 16.4571 18.6509 16.5696 18.5706 16.6446L17.4134 17.8071C17.3277 17.8928 17.2206 17.9303 17.1134 17.9303C17.0063 17.9303 16.8938 17.8874 16.8134 17.8071L12.7688 13.7571L8.72949 17.8124C8.64914 17.8981 8.53664 17.9356 8.42949 17.9356C8.32235 17.9356 8.20985 17.8928 8.12949 17.8124L6.97235 16.6499C6.89199 16.5696 6.84914 16.4624 6.84914 16.3499C6.84914 16.2374 6.89199 16.1249 6.97235 16.0499L11.0277 11.9785L6.96164 7.96063C6.79556 7.79455 6.79556 7.52134 6.96164 7.35527L8.11878 6.19277C8.19914 6.11241 8.30628 6.06955 8.41878 6.06955C8.53128 6.06955 8.63842 6.11241 8.71878 6.19277L12.7741 10.1946L16.8295 6.19277C16.9098 6.11241 17.017 6.06955 17.1295 6.06955C17.242 6.06955 17.3491 6.11241 17.4295 6.19277L18.5866 7.35527C18.7527 7.52134 18.7527 7.79455 18.5866 7.96063L14.5206 11.9785L18.5706 16.0446Z" fill="black" fill-opacity="0.2"/>
<mask id="mask0_1860_13696" style="mask-type:alpha" maskUnits="userSpaceOnUse" x="0" y="0" width="25" height="24">
<path fill-rule="evenodd" clip-rule="evenodd" d="M12.7688 0C6.14201 0 0.768799 5.37321 0.768799 12C0.768799 18.6268 6.14201 24 12.7688 24C19.3956 24 24.7688 18.6268 24.7688 12C24.7688 5.37321 19.3956 0 12.7688 0ZM18.5706 16.0446C18.6509 16.1249 18.6938 16.2321 18.6938 16.3446C18.6938 16.4571 18.6509 16.5696 18.5706 16.6446L17.4134 17.8071C17.3277 17.8928 17.2206 17.9303 17.1134 17.9303C17.0063 17.9303 16.8938 17.8874 16.8134 17.8071L12.7688 13.7571L8.72949 17.8124C8.64914 17.8981 8.53664 17.9356 8.42949 17.9356C8.32235 17.9356 8.20985 17.8928 8.12949 17.8124L6.97235 16.6499C6.89199 16.5696 6.84914 16.4624 6.84914 16.3499C6.84914 16.2374 6.89199 16.1249 6.97235 16.0499L11.0277 11.9785L6.96164 7.96063C6.79556 7.79455 6.79556 7.52134 6.96164 7.35527L8.11878 6.19277C8.19914 6.11241 8.30628 6.06955 8.41878 6.06955C8.53128 6.06955 8.63842 6.11241 8.71878 6.19277L12.7741 10.1946L16.8295 6.19277C16.9098 6.11241 17.017 6.06955 17.1295 6.06955C17.242 6.06955 17.3491 6.11241 17.4295 6.19277L18.5866 7.35527C18.7527 7.52134 18.7527 7.79455 18.5866 7.96063L14.5206 11.9785L18.5706 16.0446Z" fill="white"/>
</mask>
<g mask="url(#mask0_1860_13696)">
<rect x="0.768799" width="24" height="24" fill="#003566"/>
<rect x="0.768799" width="24" height="24" fill="black" fill-opacity="0.2"/>
<rect x="0.768799" width="24" height="24" fill="black" fill-opacity="0.2"/>
</g>
</svg>
