<svg width="24" height="24" viewBox="0 0 24 24" fill="none" xmlns="http://www.w3.org/2000/svg">
<path fill-rule="evenodd" clip-rule="evenodd" d="M0.788865 7.71429C2.51424 3.20379 6.8824 0 11.9993 0C18.6269 0 23.9999 5.37311 23.9999 12C23.9999 18.6276 18.6269 24 11.9993 24C6.88229 24 2.51408 20.7965 0.788758 16.2857H2.64431C3.14778 17.3832 3.84747 18.394 4.72669 19.2732C6.66929 21.2158 9.25208 22.2857 11.9993 22.2857C14.7468 22.2857 17.33 21.2158 19.2728 19.2731C21.2157 17.3304 22.2856 14.7474 22.2856 12C22.2856 9.2528 21.2157 6.66991 19.2727 4.72709C17.3298 2.78427 14.7467 1.71429 11.9993 1.71429C9.25219 1.71429 6.6694 2.78427 4.72674 4.72704C3.84758 5.60625 3.14788 6.61693 2.64453 7.71429H0.788865ZM10.5798 16.8487L9.36766 15.6365L12.1471 12.8571H0V11.1428H12.1471L9.36761 8.36341L10.5798 7.15119L15.4286 11.9999L10.5798 16.8487Z" fill="#001B36"/>
<mask id="mask0_1894_4972" style="mask-type:alpha" maskUnits="userSpaceOnUse" x="0" y="0" width="24" height="24">
<path fill-rule="evenodd" clip-rule="evenodd" d="M0.788865 7.71429C2.51424 3.20379 6.8824 0 11.9993 0C18.6269 0 23.9999 5.37311 23.9999 12C23.9999 18.6276 18.6269 24 11.9993 24C6.88229 24 2.51408 20.7965 0.788758 16.2857H2.64431C3.14778 17.3832 3.84747 18.394 4.72669 19.2732C6.66929 21.2158 9.25208 22.2857 11.9993 22.2857C14.7468 22.2857 17.33 21.2158 19.2728 19.2731C21.2157 17.3304 22.2856 14.7474 22.2856 12C22.2856 9.2528 21.2157 6.66991 19.2727 4.72709C17.3298 2.78427 14.7467 1.71429 11.9993 1.71429C9.25219 1.71429 6.6694 2.78427 4.72674 4.72704C3.84758 5.60625 3.14788 6.61693 2.64453 7.71429H0.788865ZM10.5798 16.8487L9.36766 15.6365L12.1471 12.8571H0V11.1428H12.1471L9.36761 8.36341L10.5798 7.15119L15.4286 11.9999L10.5798 16.8487Z" fill="white"/>
</mask>
<g mask="url(#mask0_1894_4972)">
<rect width="24" height="24" fill="#E26B00"/>
</g>
</svg>
