<svg width="24" height="24" viewBox="0 0 24 24" fill="none" xmlns="http://www.w3.org/2000/svg">
<path d="M21 0H3C1.34315 0 0 1.34315 0 3V21C0 22.6569 1.34315 24 3 24H21C22.6569 24 24 22.6569 24 21V3C24 1.34315 22.6569 0 21 0Z" fill="#3B5998"/>
<path d="M13.4514 21.375V12.8221H16.3222L16.752 9.48914H13.4515V7.36125C13.4515 6.39617 13.7196 5.73846 15.1031 5.73846L16.8682 5.73794V2.75662C16.5631 2.71566 15.5155 2.625 14.2963 2.625C11.7515 2.625 10.0096 4.17871 10.0096 7.03116V9.48915H7.13135V12.8221H10.0095V21.375H13.4514V21.375Z" fill="white"/>
</svg>
