<svg width="24" height="24" viewBox="0 0 24 24" fill="none" xmlns="http://www.w3.org/2000/svg">
<path d="M24 18.5203C24 21.5484 21.5484 24 18.5203 24H5.47969C2.45156 24 0 21.5484 0 18.5203V5.48438C0 2.45625 2.45625 0 5.48438 0H18.4359C21.5109 0 24 2.48906 24 5.56406V18.5203Z" fill="url(#paint0_radial_1731_11559)"/>
<path d="M15.3375 3.30859H8.6625C5.70469 3.30859 3.30469 5.70859 3.30469 8.66641V15.3367C3.30469 18.2945 5.7 20.6898 8.6625 20.6898H15.3328C18.2906 20.6898 20.6859 18.2945 20.6859 15.3367V8.66641C20.6906 5.70391 18.2953 3.30859 15.3375 3.30859ZM19.0219 14.6945C19.0219 17.0852 17.0859 19.0211 14.6953 19.0211H9.30469C6.91406 19.0211 4.97812 17.0852 4.97812 14.6945V9.30391C4.97812 6.91328 6.91406 4.97734 9.30469 4.97734H14.6953C17.0859 4.97734 19.0219 6.91797 19.0219 9.30391V14.6945Z" fill="white"/>
<path d="M12.2345 7.45312C9.70322 7.45312 7.65479 9.50156 7.65479 12.0328C7.65479 14.5594 9.70322 16.6125 12.2345 16.6125C14.761 16.6125 16.8142 14.5641 16.8142 12.0328C16.8095 9.50156 14.761 7.45312 12.2345 7.45312ZM12.2345 14.7844C10.711 14.7844 9.47822 13.5516 9.47822 12.0281C9.47822 10.5047 10.711 9.27188 12.2345 9.27188C13.7532 9.27188 14.9907 10.5047 14.9907 12.0281C14.986 13.5516 13.7532 14.7844 12.2345 14.7844Z" fill="white"/>
<path d="M17.658 7.38203C17.658 8.02422 17.1377 8.54453 16.4955 8.54453C15.8533 8.54453 15.333 8.02422 15.333 7.38203C15.333 6.73984 15.8533 6.21484 16.4955 6.21484C17.1377 6.21484 17.658 6.73516 17.658 7.38203Z" fill="white"/>
<defs>
<radialGradient id="paint0_radial_1731_11559" cx="0" cy="0" r="1" gradientUnits="userSpaceOnUse" gradientTransform="translate(7.02977 25.8581) scale(31.8036 31.8027)">
<stop offset="0.0969388" stop-color="#FFD87A"/>
<stop offset="0.1426" stop-color="#FCCE78"/>
<stop offset="0.2263" stop-color="#F5B471"/>
<stop offset="0.3378" stop-color="#EB8D65"/>
<stop offset="0.449" stop-color="#E36058"/>
<stop offset="0.6786" stop-color="#CD3694"/>
<stop offset="1" stop-color="#6668B0"/>
</radialGradient>
</defs>
</svg>
