<?xml version="1.0" encoding="UTF-8" standalone="no"?>
<svg
   xmlns:dc="http://purl.org/dc/elements/1.1/"
   xmlns:cc="http://creativecommons.org/ns#"
   xmlns:rdf="http://www.w3.org/1999/02/22-rdf-syntax-ns#"
   xmlns:svg="http://www.w3.org/2000/svg"
   xmlns="http://www.w3.org/2000/svg"
   xmlns:sodipodi="http://sodipodi.sourceforge.net/DTD/sodipodi-0.dtd"
   xmlns:inkscape="http://www.inkscape.org/namespaces/inkscape"
   version="1.1"
   id="svg2"
   xml:space="preserve"
   width="1122.52"
   height="793.70667"
   viewBox="0 0 1122.52 793.70667"
   sodipodi:docname="latitudeLogo.ai"><metadata
     id="metadata8"><rdf:RDF><cc:Work
         rdf:about=""><dc:format>image/svg+xml</dc:format><dc:type
           rdf:resource="http://purl.org/dc/dcmitype/StillImage" /></cc:Work></rdf:RDF></metadata><defs
     id="defs6"><clipPath
       clipPathUnits="userSpaceOnUse"
       id="clipPath18"><path
         d="M 0,595.28 H 841.89 V 0 H 0 Z"
         id="path16" /></clipPath></defs><sodipodi:namedview
     pagecolor="#ffffff"
     bordercolor="#666666"
     borderopacity="1"
     objecttolerance="10"
     gridtolerance="10"
     guidetolerance="10"
     inkscape:pageopacity="0"
     inkscape:pageshadow="2"
     inkscape:window-width="640"
     inkscape:window-height="480"
     id="namedview4" /><g
     id="g10"
     inkscape:groupmode="layer"
     inkscape:label="latitudeLogo"
     transform="matrix(1.3333333,0,0,-1.3333333,0,793.70667)"><g
       id="g12"><g
         id="g14"
         clip-path="url(#clipPath18)"><g
           id="g20"
           transform="translate(365.5298,318.1819)"><path
             d="M 0,0 H -6.58 C -7.399,0 -8.095,-0.691 -8.095,-1.514 V -24.19 c 0,-0.823 -0.691,-1.515 -1.514,-1.515 h -2.075 c -0.822,0 -1.514,0.692 -1.514,1.515 v 22.676 c 0,0.823 -0.695,1.514 -1.514,1.514 h -6.536 c -0.823,0 -1.514,0.695 -1.514,1.515 v 1.559 c 0,0.823 0.691,1.515 1.514,1.515 H 0 c 0.823,0 1.515,-0.692 1.515,-1.515 V 1.515 C 1.515,0.695 0.823,0 0,0"
             style="fill:#231f20;fill-opacity:1;fill-rule:nonzero;stroke:none"
             id="path22" /></g><g
           id="g24"
           transform="translate(410.1265,321.2561)"><path
             d="m 0,0 v -16.227 c 0,-7.922 -4.976,-12.77 -13.157,-12.77 -8.177,0 -13.198,4.848 -13.198,12.77 V 0 c 0,0.823 0.691,1.515 1.515,1.515 h 2.078 c 0.823,0 1.514,-0.692 1.514,-1.515 v -16.227 c 0,-5.107 3.161,-8.181 8.136,-8.181 4.935,0 8.005,3.029 8.005,8.181 V 0 c 0,0.823 0.695,1.515 1.514,1.515 h 2.079 C -0.691,1.515 0,0.823 0,0"
             style="fill:#231f20;fill-opacity:1;fill-rule:nonzero;stroke:none"
             id="path26" /></g><g
           id="g28"
           transform="translate(435.5049,316.6677)"><path
             d="m 0,0 v -18.087 c 0,-0.824 0.695,-1.515 1.515,-1.515 h 5.929 c 5.885,0 10.388,4.371 10.388,10.515 0,6.19 -4.63,10.601 -10.605,10.601 H 1.515 C 0.695,1.514 0,0.823 0,0 M -3.593,6.103 H 7.312 c 9.091,0 15.668,-6.362 15.668,-15.149 0,-8.741 -6.622,-15.144 -15.795,-15.144 H -3.593 c -0.819,0 -1.514,0.691 -1.514,1.514 V 4.588 c 0,0.824 0.695,1.515 1.514,1.515"
             style="fill:#231f20;fill-opacity:1;fill-rule:nonzero;stroke:none"
             id="path30" /></g><g
           id="g32"
           transform="translate(497.0195,318.1819)"><path
             d="m 0,0 h -13.502 c -0.819,0 -1.515,-0.691 -1.515,-1.514 v -5.149 c 0,-0.823 0.696,-1.514 1.515,-1.514 h 11.773 c 0.82,0 1.515,-0.692 1.515,-1.515 v -1.559 c 0,-0.823 -0.695,-1.515 -1.515,-1.515 h -11.773 c -0.819,0 -1.515,-0.692 -1.515,-1.514 v -5.322 c 0,-0.823 0.696,-1.514 1.515,-1.514 H 0.519 c 0.823,0 1.514,-0.696 1.514,-1.514 v -1.56 c 0,-0.823 -0.691,-1.515 -1.514,-1.515 h -19.128 c -0.82,0 -1.515,0.692 -1.515,1.515 V 3.074 c 0,0.823 0.695,1.515 1.515,1.515 L 0,4.589 c 0.823,0 1.515,-0.692 1.515,-1.515 V 1.515 C 1.515,0.695 0.823,0 0,0"
             style="fill:#231f20;fill-opacity:1;fill-rule:nonzero;stroke:none"
             id="path34" /></g><g
           id="g36"
           transform="translate(351.8633,226.0329)"><path
             d="m 0,0 -0.959,2.432 c -0.228,0.612 -1.012,0.612 -1.244,0 L -3.158,0 c -0.191,-0.478 0.113,-0.918 0.611,-0.918 h 1.914 c 0.498,0 0.805,0.44 0.633,0.918 m 0.88,-3.502 h -4.937 c -0.233,0 -0.536,-0.21 -0.633,-0.422 L -5.323,-5.55 c -0.094,-0.211 -0.401,-0.421 -0.63,-0.421 h -2.03 c -0.517,0 -0.82,0.459 -0.611,0.939 L -3.39,7.026 c 0.097,0.209 0.386,0.401 0.614,0.401 h 2.622 c 0.229,0 0.517,-0.21 0.611,-0.401 L 5.552,-5.032 C 5.743,-5.512 5.436,-5.971 4.918,-5.971 H 2.757 c -0.232,0 -0.536,0.21 -0.633,0.421 L 1.51,-3.924 c -0.094,0.212 -0.401,0.422 -0.63,0.422"
             style="fill:#231f20;fill-opacity:1;fill-rule:nonzero;stroke:none"
             id="path38" /></g><g
           id="g40"
           transform="translate(368.8853,226.5124)"><path
             d="m 0,0 h 1.914 c 1.472,0 2.334,0.746 2.334,2.162 0,1.397 -0.862,2.105 -2.334,2.105 L 0,4.267 c -0.363,0 -0.67,-0.305 -0.67,-0.668 V 0.669 C -0.67,0.306 -0.363,0 0,0 M 3.81,-6.087 2.008,-2.68 H 0 c -0.363,0 -0.67,-0.305 -0.67,-0.671 V -5.78 c 0,-0.364 -0.308,-0.67 -0.671,-0.67 h -2.068 c -0.363,0 -0.667,0.306 -0.667,0.67 V 6.276 c 0,0.366 0.304,0.671 0.667,0.671 h 5.323 c 3.54,0 5.571,-1.683 5.571,-4.669 0,-1.742 -0.633,-3.062 -1.78,-3.905 -0.269,-0.21 -0.442,-0.727 -0.251,-1.034 l 1.761,-2.755 c 0.307,-0.48 0,-1.034 -0.573,-1.034 h -2.24 c -0.192,0 -0.499,0.19 -0.592,0.363"
             style="fill:#231f20;fill-opacity:1;fill-rule:nonzero;stroke:none"
             id="path42" /></g><g
           id="g44"
           transform="translate(394.0024,230.7234)"><path
             d="m 0,0 h -2.697 c -0.364,0 -0.671,-0.308 -0.671,-0.671 v -9.32 c 0,-0.363 -0.307,-0.67 -0.67,-0.67 h -2.068 c -0.363,0 -0.667,0.307 -0.667,0.67 v 9.32 C -6.773,-0.308 -7.08,0 -7.443,0 h -2.66 c -0.363,0 -0.67,0.306 -0.67,0.671 v 1.416 c 0,0.363 0.307,0.668 0.67,0.668 H 0 c 0.364,0 0.671,-0.305 0.671,-0.668 V 0.671 C 0.671,0.306 0.364,0 0,0"
             style="fill:#231f20;fill-opacity:1;fill-rule:nonzero;stroke:none"
             id="path46" /></g><g
           id="g48"
           transform="translate(421.9819,232.446)"><path
             d="m 0,0 c 0.307,-0.172 0.442,-0.537 0.289,-0.861 l -0.727,-1.474 c -0.154,-0.345 -0.633,-0.459 -0.959,-0.308 -1.281,0.633 -2.716,1.053 -3.638,1.053 -0.88,0 -1.472,-0.324 -1.472,-0.975 0,-2.316 7.08,-0.996 7.08,-5.837 0,-2.68 -2.371,-4.096 -5.357,-4.096 -2.068,0 -4.192,0.727 -5.761,1.856 -0.247,0.191 -0.27,0.498 -0.116,0.766 l 0.689,1.377 c 0.191,0.365 0.708,0.498 1.053,0.249 1.322,-0.918 2.985,-1.493 4.173,-1.493 1.071,0 1.742,0.403 1.742,1.169 0,2.373 -7.08,0.955 -7.08,5.703 0,2.469 2.124,4.038 5.338,4.038 C -3.061,1.167 -1.337,0.708 0,0"
             style="fill:#231f20;fill-opacity:1;fill-rule:nonzero;stroke:none"
             id="path50" /></g><g
           id="g52"
           transform="translate(433.583,230.1111)"><path
             d="M 0,0 V -2.93 C 0,-3.293 0.308,-3.599 0.671,-3.599 H 2.26 c 1.494,0 2.352,0.746 2.352,2.162 0,1.397 -0.858,2.105 -2.352,2.105 H 0.671 C 0.308,0.668 0,0.363 0,0 m -2.738,3.349 h 5.17 c 3.427,0 5.398,-1.684 5.398,-4.669 0,-3.14 -1.971,-4.958 -5.398,-4.958 H 0.671 C 0.308,-6.278 0,-6.584 0,-6.949 v -2.43 c 0,-0.363 -0.307,-0.67 -0.67,-0.67 h -2.068 c -0.364,0 -0.666,0.307 -0.666,0.67 V 2.678 c 0,0.365 0.302,0.671 0.666,0.671"
             style="fill:#231f20;fill-opacity:1;fill-rule:nonzero;stroke:none"
             id="path54" /></g><g
           id="g56"
           transform="translate(456.5166,226.0329)"><path
             d="m 0,0 -0.959,2.432 c -0.228,0.612 -1.011,0.612 -1.243,0 L -3.157,0 c -0.192,-0.478 0.112,-0.918 0.61,-0.918 h 1.914 c 0.498,0 0.806,0.44 0.633,0.918 m 0.881,-3.502 h -4.938 c -0.232,0 -0.536,-0.21 -0.632,-0.422 L -5.323,-5.55 c -0.094,-0.211 -0.401,-0.421 -0.629,-0.421 h -2.03 c -0.518,0 -0.821,0.459 -0.611,0.939 l 5.207,12.058 c 0.093,0.209 0.382,0.401 0.611,0.401 h 2.622 c 0.228,0 0.516,-0.21 0.61,-0.401 L 5.552,-5.032 C 5.743,-5.512 5.436,-5.971 4.919,-5.971 H 2.757 c -0.232,0 -0.535,0.21 -0.633,0.421 l -0.61,1.626 c -0.098,0.212 -0.405,0.422 -0.633,0.422"
             style="fill:#231f20;fill-opacity:1;fill-rule:nonzero;stroke:none"
             id="path58" /></g><g
           id="g60"
           transform="translate(480.7168,231.7175)"><path
             d="M 0,0 C 0.27,-0.249 0.27,-0.594 0.037,-0.861 L -1.109,-2.2 c -0.214,-0.269 -0.69,-0.231 -0.941,-0.019 -0.843,0.766 -1.895,1.225 -2.869,1.225 -2.124,0 -3.731,-1.684 -3.731,-3.887 0,-2.238 1.607,-3.942 3.731,-3.942 0.937,0 1.971,0.421 2.851,1.092 0.251,0.21 0.745,0.228 0.977,0 L 0,-8.898 c 0.27,-0.27 0.288,-0.633 -0.02,-0.882 -1.396,-1.244 -3.292,-2.029 -5.072,-2.029 -4.038,0 -7.042,2.967 -7.042,6.891 0,3.865 3.079,6.774 7.158,6.774 C -3.177,1.856 -1.342,1.148 0,0"
             style="fill:#231f20;fill-opacity:1;fill-rule:nonzero;stroke:none"
             id="path62" /></g><g
           id="g64"
           transform="translate(498.293,230.779)"><path
             d="m 0,0 h -5.743 c -0.363,0 -0.67,-0.305 -0.67,-0.668 v -1.32 c 0,-0.365 0.307,-0.671 0.67,-0.671 h 5.054 c 0.363,0 0.67,-0.306 0.67,-0.671 v -1.339 c 0,-0.363 -0.307,-0.671 -0.67,-0.671 h -5.054 c -0.363,0 -0.67,-0.305 -0.67,-0.668 v -1.36 c 0,-0.363 0.307,-0.669 0.67,-0.669 H 0.21 c 0.363,0 0.67,-0.307 0.67,-0.67 v -1.34 c 0,-0.363 -0.307,-0.67 -0.67,-0.67 h -9.361 c -0.364,0 -0.667,0.307 -0.667,0.67 V 2.01 c 0,0.365 0.303,0.671 0.667,0.671 H 0 c 0.363,0 0.671,-0.306 0.671,-0.671 V 0.671 C 0.671,0.308 0.363,0 0,0"
             style="fill:#231f20;fill-opacity:1;fill-rule:nonzero;stroke:none"
             id="path66" /></g><g
           id="g68"
           transform="translate(349.6675,349.759)"><path
             d="m 0,0 h 13.394 c 0.822,0 1.518,-0.692 1.518,-1.515 v -1.601 c 0,-0.822 -0.696,-1.514 -1.518,-1.514 H -5.107 c -0.82,0 -1.515,0.692 -1.515,1.514 v 27.265 c 0,0.823 0.695,1.515 1.515,1.515 h 2.078 c 0.823,0 1.514,-0.692 1.514,-1.515 V 1.514 C -1.515,0.691 -0.819,0 0,0"
             style="fill:#231f20;fill-opacity:1;fill-rule:nonzero;stroke:none"
             id="path70" /></g><g
           id="g72"
           transform="translate(401.6519,358.6316)"><path
             d="m 0,0 -3.416,8.05 c -0.564,1.296 -2.21,1.296 -2.77,0 L -9.605,0 c -0.478,-1.083 0.217,-2.12 1.382,-2.12 h 6.84 c 1.169,0 1.86,1.037 1.383,2.12 m 1.864,-6.667 h -13.288 c -0.519,0 -1.169,-0.432 -1.384,-0.905 l -2.119,-5.021 c -0.218,-0.477 -0.868,-0.909 -1.386,-0.909 h -1.993 c -1.168,0 -1.86,1.037 -1.382,2.119 l 12.029,27.264 c 0.173,0.478 0.868,0.91 1.387,0.91 h 3.243 c 0.522,0 1.214,-0.432 1.386,-0.91 l 11.944,-27.264 c 0.432,-1.082 -0.215,-2.119 -1.383,-2.119 H 6.753 c -0.519,0 -1.169,0.432 -1.387,0.909 l -2.119,5.021 c -0.214,0.473 -0.865,0.905 -1.383,0.905"
             style="fill:#231f20;fill-opacity:1;fill-rule:nonzero;stroke:none"
             id="path74" /></g><g
           id="g76"
           transform="translate(451.082,370.8337)"><path
             d="M 0,0 H -6.58 C -7.399,0 -8.095,-0.691 -8.095,-1.514 V -24.19 c 0,-0.823 -0.691,-1.515 -1.513,-1.515 h -2.076 c -0.822,0 -1.513,0.692 -1.513,1.515 v 22.676 c 0,0.823 -0.696,1.514 -1.515,1.514 h -6.535 c -0.823,0 -1.515,0.695 -1.515,1.515 v 1.559 c 0,0.823 0.692,1.515 1.515,1.515 H 0 c 0.823,0 1.515,-0.692 1.515,-1.515 V 1.515 C 1.515,0.695 0.823,0 0,0"
             style="fill:#231f20;fill-opacity:1;fill-rule:nonzero;stroke:none"
             id="path78" /></g><g
           id="g80"
           transform="translate(476.5713,345.1291)"><path
             d="m 0,0 h -2.078 c -0.819,0 -1.515,0.691 -1.515,1.514 v 27.265 c 0,0.823 0.696,1.514 1.515,1.514 H 0 c 0.823,0 1.515,-0.691 1.515,-1.514 V 1.514 C 1.515,0.691 0.823,0 0,0"
             style="fill:#231f20;fill-opacity:1;fill-rule:nonzero;stroke:none"
             id="path82" /></g><g
           id="g84"
           transform="translate(490.9922,370.6609)"><path
             d="m 0,0 c 0,-1.452 1.279,-2.69 2.859,-2.69 1.579,0 2.86,1.238 2.86,2.69 0,1.45 -1.281,2.732 -2.86,2.732 C 1.279,2.732 0,1.45 0,0 m 7.81,0 c 0,-2.69 -2.219,-4.908 -4.951,-4.908 -2.69,0 -4.953,2.218 -4.953,4.908 0,2.688 2.221,4.909 4.953,4.909 C 5.591,4.909 7.81,2.688 7.81,0"
             style="fill:#231f20;fill-opacity:1;fill-rule:nonzero;stroke:none"
             id="path86" /></g><g
           id="g88"
           transform="translate(347.9541,261.6736)"><path
             d="m 0,0 h 1.092 c 0.367,0 0.675,0.309 0.675,0.681 v 1.548 c 0,0.367 0.308,0.68 0.685,0.68 h 1.836 c 0.367,0 0.675,-0.313 0.675,-0.68 V 0.681 C 4.963,0.309 5.281,0 5.648,0 h 0.486 c 0.367,0 0.675,-0.312 0.675,-0.68 v -1.26 c 0,-0.368 -0.308,-0.675 -0.675,-0.675 H 5.648 c -0.367,0 -0.685,-0.313 -0.685,-0.68 v -1.628 c 0,-0.372 -0.308,-0.68 -0.675,-0.68 H 2.452 c -0.377,0 -0.685,0.308 -0.685,0.68 v 1.628 c 0,0.367 -0.308,0.68 -0.675,0.68 H -3.99 c -0.367,0 -0.675,0.307 -0.675,0.675 v 1.454 c 0,0.059 0.06,0.293 0.08,0.333 l 4.009,7.752 c 0.1,0.173 0.408,0.367 0.596,0.367 h 1.807 c 0.546,0 0.853,-0.501 0.605,-0.987 L -0.595,0.988 C -0.844,0.502 -0.536,0 0,0"
             style="fill:#231f20;fill-opacity:1;fill-rule:nonzero;stroke:none"
             id="path90" /></g><g
           id="g92"
           transform="translate(367.478,262.8747)"><path
             d="m 0,0 c 0,-3.102 0.745,-4.382 2.481,-4.382 1.708,0 2.472,1.28 2.472,4.382 0,3.103 -0.764,4.362 -2.472,4.362 C 0.745,4.362 0,3.103 0,0 m 8.477,0 c 0,-4.437 -2.154,-6.903 -5.996,-6.903 -3.871,0 -6.024,2.466 -6.024,6.903 0,4.422 2.153,6.884 6.024,6.884 3.842,0 5.996,-2.462 5.996,-6.884"
             style="fill:#231f20;fill-opacity:1;fill-rule:nonzero;stroke:none"
             id="path94" /></g><g
           id="g96"
           transform="translate(387.7861,269.6198)"><path
             d="m 0,0 c 0,-0.541 0.467,-0.988 1.013,-0.988 0.555,0 1.002,0.447 1.002,0.988 0,0.546 -0.447,0.992 -1.002,0.992 C 0.467,0.992 0,0.546 0,0 m 3.315,0 c 0,-1.256 -1.032,-2.283 -2.302,-2.283 -1.261,0 -2.313,1.027 -2.313,2.283 0,1.261 1.052,2.288 2.313,2.288 1.27,0 2.302,-1.027 2.302,-2.288"
             style="fill:#231f20;fill-opacity:1;fill-rule:nonzero;stroke:none"
             id="path98" /></g><g
           id="g100"
           transform="translate(410.814,266.2497)"><path
             d="m 0,0 c 0,-1.474 -1.082,-3.008 -2.551,-4.517 l -1.687,-1.786 c -0.427,-0.462 -0.139,-1.141 0.506,-1.141 h 3.464 c 0.367,0 0.675,-0.313 0.675,-0.68 v -1.375 c 0,-0.372 -0.308,-0.68 -0.675,-0.68 h -8.804 c -0.367,0 -0.675,0.308 -0.675,0.68 v 1.28 c 0,0.095 0.119,0.388 0.199,0.462 l 4.645,4.944 c 0.754,0.798 1.3,1.707 1.3,2.327 0,0.774 -0.556,1.241 -1.528,1.241 -0.914,0 -1.995,-0.447 -3.048,-1.201 -0.327,-0.234 -0.853,-0.155 -1.042,0.193 l -0.645,1.261 c -0.149,0.287 -0.04,0.679 0.258,0.873 1.548,1.047 3.236,1.668 4.983,1.668 C -1.936,3.549 0,2.149 0,0"
             style="fill:#231f20;fill-opacity:1;fill-rule:nonzero;stroke:none"
             id="path102" /></g><g
           id="g104"
           transform="translate(430.5566,266.2497)"><path
             d="m 0,0 c 0,-1.474 -1.082,-3.008 -2.551,-4.517 l -1.687,-1.786 c -0.427,-0.462 -0.14,-1.141 0.496,-1.141 h 3.473 c 0.368,0 0.675,-0.313 0.675,-0.68 v -1.375 c 0,-0.372 -0.307,-0.68 -0.675,-0.68 h -8.803 c -0.367,0 -0.676,0.308 -0.676,0.68 v 1.28 c 0,0.095 0.12,0.388 0.199,0.462 l 4.646,4.944 c 0.754,0.798 1.299,1.707 1.299,2.327 0,0.774 -0.555,1.241 -1.528,1.241 -0.913,0 -1.995,-0.447 -3.047,-1.201 -0.328,-0.234 -0.854,-0.155 -1.042,0.193 l -0.646,1.261 c -0.148,0.287 -0.039,0.679 0.259,0.873 1.548,1.047 3.235,1.668 4.982,1.668 C -1.936,3.549 0,2.149 0,0"
             style="fill:#231f20;fill-opacity:1;fill-rule:nonzero;stroke:none"
             id="path106" /></g><g
           id="g108"
           transform="translate(443.6885,268.071)"><path
             d="m 0,0 c 0,-0.506 -0.169,-0.913 -0.427,-1.28 l -1.221,-1.762 c -0.07,-0.139 -0.387,-0.293 -0.536,-0.293 h -0.447 c -0.407,0 -0.644,0.367 -0.486,0.739 l 0.467,1.063 c 0.04,0.119 -0.04,0.352 -0.12,0.427 -0.288,0.293 -0.426,0.679 -0.426,1.086 0,0.948 0.684,1.608 1.607,1.608 C -0.735,1.588 0,1.008 0,0"
             style="fill:#231f20;fill-opacity:1;fill-rule:nonzero;stroke:none"
             id="path110" /></g><g
           id="g112"
           transform="translate(463.0928,266.2497)"><path
             d="m 0,0 c 0,-1.474 -1.082,-3.008 -2.551,-4.517 l -1.687,-1.786 c -0.427,-0.462 -0.139,-1.141 0.496,-1.141 h 3.474 c 0.368,0 0.675,-0.313 0.675,-0.68 v -1.375 c 0,-0.372 -0.307,-0.68 -0.675,-0.68 h -8.804 c -0.367,0 -0.675,0.308 -0.675,0.68 v 1.28 c 0,0.095 0.119,0.388 0.198,0.462 l 4.646,4.944 c 0.755,0.798 1.3,1.707 1.3,2.327 0,0.774 -0.556,1.241 -1.529,1.241 -0.913,0 -1.995,-0.447 -3.047,-1.201 -0.327,-0.234 -0.853,-0.155 -1.042,0.193 l -0.645,1.261 c -0.149,0.287 -0.039,0.679 0.258,0.873 1.548,1.047 3.236,1.668 4.983,1.668 C -1.936,3.549 0,2.149 0,0"
             style="fill:#231f20;fill-opacity:1;fill-rule:nonzero;stroke:none"
             id="path114" /></g><g
           id="g116"
           transform="translate(482.835,266.2497)"><path
             d="m 0,0 c 0,-1.474 -1.082,-3.008 -2.551,-4.517 l -1.687,-1.786 c -0.427,-0.462 -0.139,-1.141 0.507,-1.141 h 3.463 c 0.368,0 0.675,-0.313 0.675,-0.68 v -1.375 c 0,-0.372 -0.307,-0.68 -0.675,-0.68 h -8.804 c -0.367,0 -0.675,0.308 -0.675,0.68 v 1.28 c 0,0.095 0.119,0.388 0.199,0.462 l 4.645,4.944 c 0.755,0.798 1.3,1.707 1.3,2.327 0,0.774 -0.555,1.241 -1.528,1.241 -0.914,0 -1.995,-0.447 -3.048,-1.201 -0.327,-0.234 -0.853,-0.155 -1.042,0.193 l -0.645,1.261 c -0.149,0.287 -0.039,0.679 0.259,0.873 1.547,1.047 3.235,1.668 4.982,1.668 C -1.936,3.549 0,2.149 0,0"
             style="fill:#231f20;fill-opacity:1;fill-rule:nonzero;stroke:none"
             id="path118" /></g><g
           id="g120"
           transform="translate(499.5605,268.071)"><path
             d="m 0,0 c 0,-0.486 -0.179,-0.894 -0.427,-1.28 l -1.221,-1.762 c -0.08,-0.139 -0.387,-0.293 -0.546,-0.293 h -0.447 c -0.407,0 -0.635,0.367 -0.486,0.739 l 0.467,1.082 c 0.039,0.119 -0.04,0.353 -0.119,0.427 -0.288,0.293 -0.427,0.68 -0.427,1.087 0,0.928 0.685,1.588 1.617,1.588 C -0.735,1.588 0,1.027 0,0 m -3.594,0 c 0,-0.486 -0.169,-0.894 -0.427,-1.28 l -1.22,-1.762 c -0.07,-0.139 -0.387,-0.293 -0.536,-0.293 h -0.447 c -0.407,0 -0.645,0.367 -0.486,0.739 l 0.466,1.082 c 0.04,0.119 -0.039,0.353 -0.119,0.427 -0.287,0.293 -0.427,0.68 -0.427,1.087 0,0.928 0.686,1.588 1.608,1.588 0.854,0 1.588,-0.561 1.588,-1.588"
             style="fill:#231f20;fill-opacity:1;fill-rule:nonzero;stroke:none"
             id="path122" /></g></g></g></g></svg>
