<svg width="15" height="16" viewBox="0 0 15 16" fill="none" xmlns="http://www.w3.org/2000/svg">
<path fill-rule="evenodd" clip-rule="evenodd" d="M8.82662 8.00223L3.22841 2.17074C3.08778 2.02671 3.09113 1.78889 3.23511 1.64152L4.23622 0.616566C4.38019 0.469188 4.61457 0.465838 4.75519 0.609867L11.5922 7.73427C11.6659 7.80796 11.6994 7.90845 11.6927 8.00558C11.696 8.10607 11.6626 8.2032 11.5922 8.27689L4.75519 15.3979C4.61457 15.542 4.38019 15.5386 4.23622 15.3912L3.23511 14.3663C3.09113 14.2189 3.08778 13.9811 3.22841 13.8371L8.82662 8.00223Z" fill="#001B36"/>
<mask id="mask0_1904_6803" style="mask-type:alpha" maskUnits="userSpaceOnUse" x="3" y="0" width="9" height="16">
<path fill-rule="evenodd" clip-rule="evenodd" d="M8.82662 8.00223L3.22841 2.17074C3.08778 2.02671 3.09113 1.78889 3.23511 1.64152L4.23622 0.616566C4.38019 0.469188 4.61457 0.465838 4.75519 0.609867L11.5922 7.73427C11.6659 7.80796 11.6994 7.90845 11.6927 8.00558C11.696 8.10607 11.6626 8.2032 11.5922 8.27689L4.75519 15.3979C4.61457 15.542 4.38019 15.5386 4.23622 15.3912L3.23511 14.3663C3.09113 14.2189 3.08778 13.9811 3.22841 13.8371L8.82662 8.00223Z" fill="white"/>
</mask>
<g mask="url(#mask0_1904_6803)">
<rect y="0.5" width="15" height="15" fill="#646464"/>
</g>
</svg>
