<svg width="590" height="200" viewBox="0 0 590 200" fill="none" xmlns="http://www.w3.org/2000/svg">
<rect width="590" height="200" fill="white"/>
<rect x="0.5" y="0.5" width="589" height="199" stroke="black" stroke-opacity="0.5"/>
<path d="M174.944 80.372H174.62C174.212 79.124 173.324 78.128 171.956 77.384C170.612 76.64 169.16 76.22 167.6 76.124C167.12 76.34 166.88 76.7 166.88 77.204V99.56C166.88 99.848 166.976 100.124 167.168 100.388C167.36 100.628 167.816 100.772 168.536 100.82V101H162.128V100.82C162.848 100.772 163.304 100.628 163.496 100.388C163.688 100.124 163.784 99.848 163.784 99.56V77.204C163.784 76.652 163.52 76.292 162.992 76.124C161.432 76.22 159.98 76.64 158.636 77.384C157.316 78.104 156.452 79.088 156.044 80.336H155.72L157.016 75.728L173.648 75.764L174.944 80.372ZM192.285 99.668C192.285 100.364 192.837 100.748 193.941 100.82V101H187.533V100.82C188.253 100.772 188.709 100.628 188.901 100.388C189.093 100.124 189.189 99.848 189.189 99.56V90.668C189.189 88.124 188.985 86.276 188.577 85.124C188.169 83.972 187.389 83.396 186.237 83.396C185.301 83.396 184.425 83.696 183.609 84.296C182.793 84.872 182.109 85.7 181.557 86.78L181.593 99.56C181.593 99.848 181.689 100.124 181.881 100.388C182.073 100.628 182.529 100.772 183.249 100.82V101H176.805V100.82C177.909 100.748 178.461 100.352 178.461 99.632L178.425 75.332C178.425 75.02 178.329 74.744 178.137 74.504C177.945 74.264 177.489 74.12 176.769 74.072V73.892H183.213V74.072C182.109 74.144 181.557 74.54 181.557 75.26V86.06C182.133 85.172 182.817 84.428 183.609 83.828C184.401 83.204 185.313 82.868 186.345 82.82C188.025 82.724 189.297 82.988 190.161 83.612C191.025 84.212 191.601 85.088 191.889 86.24C192.201 87.368 192.345 88.844 192.321 90.668L192.285 99.668ZM211.935 96.932C211.623 97.94 211.035 98.876 210.171 99.74C209.307 100.58 207.975 101.084 206.175 101.252C205.647 101.3 205.275 101.324 205.059 101.324C203.211 101.324 201.603 100.856 200.235 99.92C198.891 98.984 197.859 97.772 197.139 96.284C196.443 94.772 196.095 93.188 196.095 91.532C196.095 90.068 196.371 88.7 196.923 87.428C197.475 86.132 198.315 85.064 199.443 84.224C200.571 83.36 201.963 82.832 203.619 82.64C204.147 82.592 204.543 82.568 204.807 82.568C206.103 82.568 207.243 82.82 208.227 83.324C209.211 83.828 209.979 84.5 210.531 85.34C211.083 86.156 211.395 87.02 211.467 87.932C210.003 88.604 208.047 89.54 205.599 90.74C203.151 91.94 201.159 92.936 199.623 93.728C200.103 95.696 200.907 97.328 202.035 98.624C203.187 99.92 204.567 100.568 206.175 100.568C207.807 100.592 209.067 100.22 209.955 99.452C210.867 98.66 211.431 97.82 211.647 96.932H211.935ZM204.375 82.928C202.695 82.928 201.411 83.636 200.523 85.052C199.659 86.468 199.227 88.22 199.227 90.308C199.227 91.364 199.335 92.396 199.551 93.404L209.379 88.472C209.307 87.536 209.055 86.648 208.623 85.808C208.191 84.944 207.603 84.248 206.859 83.72C206.139 83.192 205.311 82.928 204.375 82.928ZM232.262 75.764C234.95 75.764 237.254 76.376 239.174 77.6C241.094 78.8 242.534 80.372 243.494 82.316C244.478 84.236 244.97 86.288 244.97 88.472C244.97 90.656 244.478 92.708 243.494 94.628C242.534 96.548 241.082 98.096 239.138 99.272C237.218 100.448 234.89 101.036 232.154 101.036H229.238H222.794V100.856C223.514 100.808 223.97 100.664 224.162 100.424C224.354 100.16 224.45 99.884 224.45 99.596V77.24C224.45 76.928 224.354 76.652 224.162 76.412C223.97 76.172 223.514 76.028 222.794 75.98V75.8H227.942H229.238L232.262 75.764ZM232.118 100.676C234.254 100.676 236.066 100.124 237.554 99.02C239.042 97.892 240.158 96.416 240.902 94.592C241.646 92.768 242.018 90.812 242.018 88.724C242.018 86.588 241.634 84.56 240.866 82.64C240.122 80.72 239.006 79.16 237.518 77.96C236.054 76.76 234.302 76.148 232.262 76.124C230.03 76.124 228.494 76.34 227.654 76.772C227.606 76.892 227.582 77.048 227.582 77.24V99.596C227.582 99.74 227.594 99.872 227.618 99.992C228.146 100.256 228.866 100.436 229.778 100.532C230.714 100.628 231.494 100.676 232.118 100.676ZM227.078 99.488C227.078 99.488 227.078 99.5 227.078 99.524C227.102 99.524 227.114 99.524 227.114 99.524L227.078 99.488ZM264.042 96.932C263.73 97.94 263.142 98.876 262.278 99.74C261.414 100.58 260.082 101.084 258.282 101.252C257.754 101.3 257.382 101.324 257.166 101.324C255.318 101.324 253.71 100.856 252.342 99.92C250.998 98.984 249.966 97.772 249.246 96.284C248.55 94.772 248.202 93.188 248.202 91.532C248.202 90.068 248.478 88.7 249.03 87.428C249.582 86.132 250.422 85.064 251.55 84.224C252.678 83.36 254.07 82.832 255.726 82.64C256.254 82.592 256.65 82.568 256.914 82.568C258.21 82.568 259.35 82.82 260.334 83.324C261.318 83.828 262.086 84.5 262.638 85.34C263.19 86.156 263.502 87.02 263.574 87.932C262.11 88.604 260.154 89.54 257.706 90.74C255.258 91.94 253.266 92.936 251.73 93.728C252.21 95.696 253.014 97.328 254.142 98.624C255.294 99.92 256.674 100.568 258.282 100.568C259.914 100.592 261.174 100.22 262.062 99.452C262.974 98.66 263.538 97.82 263.754 96.932H264.042ZM256.482 82.928C254.802 82.928 253.518 83.636 252.63 85.052C251.766 86.468 251.334 88.22 251.334 90.308C251.334 91.364 251.442 92.396 251.658 93.404L261.486 88.472C261.414 87.536 261.162 86.648 260.73 85.808C260.298 84.944 259.71 84.248 258.966 83.72C258.246 83.192 257.418 82.928 256.482 82.928ZM273.048 83.324C271.56 83.684 270.42 84.584 269.628 86.024C268.86 87.44 268.476 89.084 268.476 90.956C268.476 92.564 268.752 94.112 269.304 95.6C269.856 97.088 270.648 98.312 271.68 99.272C272.736 100.208 273.948 100.676 275.316 100.676C276.948 100.676 278.208 100.304 279.096 99.56C280.008 98.792 280.68 97.94 281.112 97.004H281.4C281.064 97.94 280.44 98.84 279.528 99.704C278.616 100.544 277.32 101.048 275.64 101.216C275.016 101.264 274.572 101.288 274.308 101.288C272.46 101.288 270.864 100.856 269.52 99.992C268.2 99.104 267.204 97.952 266.532 96.536C265.86 95.12 265.524 93.608 265.524 92C265.524 90.56 265.8 89.192 266.352 87.896C266.928 86.576 267.78 85.46 268.908 84.548C270.036 83.636 271.416 83.06 273.048 82.82C273.504 82.748 273.96 82.712 274.416 82.712C275.832 82.712 276.924 82.904 277.692 83.288C278.46 83.672 278.868 83.876 278.916 83.9L279.78 83.324L280.428 87.068H280.104C279.696 85.82 278.988 84.86 277.98 84.188C276.996 83.492 275.892 83.144 274.668 83.144C274.044 83.144 273.504 83.204 273.048 83.324ZM297.02 98.12C297.548 98.984 298.136 99.656 298.784 100.136C299.456 100.592 300.116 100.808 300.764 100.784V100.964H294.14V100.82C294.764 100.748 295.076 100.532 295.076 100.172C295.076 99.98 294.992 99.752 294.824 99.488C294.68 99.2 294.584 99.02 294.536 98.948L288.668 89.552L286.616 91.46V99.56C286.616 99.848 286.712 100.124 286.904 100.388C287.096 100.628 287.552 100.772 288.272 100.82V101H281.828V100.82C282.932 100.748 283.484 100.352 283.484 99.632L283.448 75.332C283.448 75.02 283.352 74.744 283.16 74.504C282.968 74.264 282.512 74.12 281.792 74.072V73.892H288.236V74.072C287.132 74.144 286.58 74.54 286.58 75.26L286.616 90.92L293.204 84.8C293.444 84.536 293.564 84.272 293.564 84.008C293.564 83.576 293.204 83.288 292.484 83.144V83H296.732V83.18C296.108 83.252 295.556 83.444 295.076 83.756C294.62 84.044 294.128 84.44 293.6 84.944L290.576 87.752L297.02 98.12ZM332.429 101C332.333 100.136 331.649 99.044 330.377 97.724C328.601 99.908 325.961 101.132 322.457 101.396C322.169 101.42 321.749 101.432 321.197 101.432C319.301 101.432 317.621 101.132 316.157 100.532C314.693 99.908 313.565 99.08 312.773 98.048C311.981 97.016 311.585 95.9 311.585 94.7C311.585 93.644 311.909 92.612 312.557 91.604C313.109 90.764 313.865 90.032 314.825 89.408C315.809 88.76 317.021 88.112 318.461 87.464C317.189 86.24 316.205 85.1 315.509 84.044C314.813 82.964 314.465 81.944 314.465 80.984C314.465 79.64 314.921 78.584 315.833 77.816C316.769 77.024 317.849 76.484 319.073 76.196C320.297 75.884 321.425 75.728 322.457 75.728C323.561 75.728 324.653 75.908 325.733 76.268C326.813 76.628 327.701 77.204 328.397 77.996C329.117 78.764 329.477 79.712 329.477 80.84C329.477 81.92 329.165 82.868 328.541 83.684C327.917 84.5 327.125 85.208 326.165 85.808C325.229 86.384 324.029 87.008 322.565 87.68C323.213 88.28 323.993 88.964 324.905 89.732C325.841 90.476 326.501 91.004 326.885 91.316L329.405 93.368C329.549 92.36 329.597 91.496 329.549 90.776C329.549 90.464 329.453 90.188 329.261 89.948C329.069 89.708 328.613 89.564 327.893 89.516V89.336H334.337V89.516C333.617 89.564 333.161 89.708 332.969 89.948C332.777 90.188 332.681 90.464 332.681 90.776C332.633 92.528 332.321 94.064 331.745 95.384C332.897 96.464 333.785 97.472 334.409 98.408C335.057 99.32 335.393 100.184 335.417 101H332.429ZM317.525 80.12C317.525 81.944 318.701 84.008 321.053 86.312C322.949 85.424 324.401 84.548 325.409 83.684C326.441 82.82 326.957 81.74 326.957 80.444C326.957 79.796 326.789 79.136 326.453 78.464C326.141 77.792 325.637 77.228 324.941 76.772C324.245 76.292 323.381 76.052 322.349 76.052C321.125 76.052 320.009 76.364 319.001 76.988C318.017 77.588 317.525 78.632 317.525 80.12ZM322.457 100.964C325.505 100.604 327.593 98.996 328.721 96.14C327.977 95.468 326.597 94.328 324.581 92.72C322.565 91.088 321.041 89.816 320.009 88.904C318.857 89.456 317.885 90.008 317.093 90.56C316.301 91.112 315.701 91.724 315.293 92.396C314.717 93.308 314.429 94.256 314.429 95.24C314.429 96.272 314.741 97.232 315.365 98.12C316.013 99.008 316.865 99.716 317.921 100.244C319.001 100.772 320.165 101.036 321.413 101.036C321.629 101.036 321.977 101.012 322.457 100.964ZM356.345 75.764C358.193 75.764 359.765 76.124 361.061 76.844C362.381 77.564 363.377 78.5 364.049 79.652C364.721 80.804 365.057 82.028 365.057 83.324C365.057 84.62 364.721 85.844 364.049 86.996C363.401 88.124 362.417 89.036 361.097 89.732C359.777 90.428 358.193 90.776 356.345 90.776H351.017V99.596C351.017 99.884 351.113 100.16 351.305 100.424C351.497 100.664 351.953 100.808 352.673 100.856V101.036H346.229V100.856C346.949 100.808 347.405 100.664 347.597 100.424C347.789 100.16 347.885 99.884 347.885 99.596V77.24C347.885 76.928 347.789 76.652 347.597 76.412C347.405 76.172 346.949 76.028 346.229 75.98V75.8H350.549L356.345 75.764ZM356.345 90.344C357.569 90.272 358.601 89.9 359.441 89.228C360.305 88.556 360.953 87.704 361.385 86.672C361.817 85.616 362.033 84.5 362.033 83.324C362.033 82.076 361.805 80.912 361.349 79.832C360.893 78.728 360.221 77.84 359.333 77.168C358.445 76.496 357.377 76.16 356.129 76.16C355.361 76.16 354.413 76.244 353.285 76.412C352.181 76.58 351.425 76.832 351.017 77.168V77.24V90.38C351.617 90.356 352.661 90.344 354.149 90.344H356.345ZM370.438 81.02C369.958 81.02 369.538 80.852 369.178 80.516C368.842 80.156 368.674 79.736 368.674 79.256C368.674 78.776 368.842 78.368 369.178 78.032C369.538 77.672 369.958 77.492 370.438 77.492C370.918 77.492 371.326 77.672 371.662 78.032C372.022 78.368 372.202 78.776 372.202 79.256C372.202 79.736 372.022 80.156 371.662 80.516C371.326 80.852 370.918 81.02 370.438 81.02ZM372.382 99.56C372.382 99.848 372.478 100.124 372.67 100.388C372.862 100.628 373.318 100.772 374.038 100.82V101H367.594V100.82C368.698 100.748 369.25 100.364 369.25 99.668L369.214 84.008C369.118 83.768 368.878 83.576 368.494 83.432C368.11 83.264 367.81 83.18 367.594 83.18V83L372.346 83.036V83.576L372.382 99.56ZM392.955 96.392L391.659 101H376.503V100.568L387.807 84.944C387.591 84.464 387.123 84.092 386.403 83.828C385.683 83.54 384.831 83.396 383.847 83.396C382.095 83.396 380.415 83.78 378.807 84.548C377.223 85.292 376.215 86.336 375.783 87.68H375.459L376.755 83.072H389.535H391.443L391.551 84.584L380.319 100.028C381.183 100.436 382.323 100.64 383.739 100.64C384.963 100.64 386.211 100.484 387.483 100.172C388.755 99.836 389.859 99.344 390.795 98.696C391.731 98.048 392.343 97.28 392.631 96.392H392.955ZM411.191 96.392L409.895 101H394.739V100.568L406.043 84.944C405.827 84.464 405.359 84.092 404.639 83.828C403.919 83.54 403.067 83.396 402.083 83.396C400.331 83.396 398.651 83.78 397.043 84.548C395.459 85.292 394.451 86.336 394.019 87.68H393.695L394.991 83.072H407.771H409.679L409.787 84.584L398.555 100.028C399.419 100.436 400.559 100.64 401.975 100.64C403.199 100.64 404.447 100.484 405.719 100.172C406.991 99.836 408.095 99.344 409.031 98.696C409.967 98.048 410.579 97.28 410.867 96.392H411.191ZM430.285 100.064C430.405 100.28 430.645 100.46 431.005 100.604C431.365 100.748 431.653 100.82 431.869 100.82V101L427.153 100.964V99.308C424.945 100.556 422.737 101.18 420.529 101.18C419.233 101.18 418.069 100.964 417.037 100.532C416.005 100.076 415.189 99.452 414.589 98.66C414.013 97.868 413.725 96.968 413.725 95.96C413.725 94.256 414.397 92.888 415.741 91.856C417.109 90.824 419.053 90.008 421.573 89.408C424.597 88.736 426.397 87.86 426.973 86.78C426.757 85.604 426.313 84.692 425.641 84.044C424.993 83.396 423.997 83.072 422.653 83.072C422.005 83.072 421.429 83.204 420.925 83.468C420.421 83.708 420.169 84.08 420.169 84.584C420.169 84.8 420.193 84.968 420.241 85.088C420.289 85.28 420.313 85.4 420.313 85.448C420.313 85.76 420.181 86.012 419.917 86.204C419.653 86.372 419.353 86.456 419.017 86.456C418.657 86.456 418.357 86.372 418.117 86.204C417.877 86.012 417.757 85.748 417.757 85.412C417.757 84.38 418.273 83.672 419.305 83.288C420.337 82.88 421.573 82.676 423.013 82.676C425.077 82.676 426.637 83 427.693 83.648C428.773 84.272 429.481 85.124 429.817 86.204C430.153 87.284 430.321 88.664 430.321 90.344L430.285 100.064ZM416.821 96.212C416.869 96.956 417.097 97.664 417.505 98.336C417.937 98.984 418.537 99.512 419.305 99.92C420.097 100.328 420.997 100.532 422.005 100.532C423.661 100.532 425.377 100.004 427.153 98.948L427.189 90.344C427.189 89 427.141 88.016 427.045 87.392C426.493 88.28 425.101 89.036 422.869 89.66C420.853 90.236 419.317 91.076 418.261 92.18C417.205 93.284 416.725 94.628 416.821 96.212Z" fill="black"/>
</svg>
