<svg width="86" height="86" viewBox="0 0 86 86" fill="none" xmlns="http://www.w3.org/2000/svg">
<rect width="86" height="86" fill="white"/>
<path d="M81.9688 2.6875H73.9062C73.5499 2.6875 73.2081 2.82907 72.9561 3.08108C72.7041 3.33308 72.5625 3.67487 72.5625 4.03125C72.5625 4.38763 72.7041 4.72942 72.9561 4.98142C73.2081 5.23343 73.5499 5.375 73.9062 5.375H80.625V12.0938C80.625 12.4501 80.7666 12.7919 81.0186 13.0439C81.2706 13.2959 81.6124 13.4375 81.9688 13.4375C82.3251 13.4375 82.6669 13.2959 82.9189 13.0439C83.1709 12.7919 83.3125 12.4501 83.3125 12.0938V4.03125C83.3125 3.67487 83.1709 3.33308 82.9189 3.08108C82.6669 2.82907 82.3251 2.6875 81.9688 2.6875Z" fill="black"/>
<path d="M4.03125 13.4375C4.38763 13.4375 4.72942 13.2959 4.98142 13.0439C5.23343 12.7919 5.375 12.4501 5.375 12.0938V5.375H12.0938C12.4501 5.375 12.7919 5.23343 13.0439 4.98142C13.2959 4.72942 13.4375 4.38763 13.4375 4.03125C13.4375 3.67487 13.2959 3.33308 13.0439 3.08108C12.7919 2.82907 12.4501 2.6875 12.0938 2.6875H4.03125C3.67487 2.6875 3.33308 2.82907 3.08108 3.08108C2.82907 3.33308 2.6875 3.67487 2.6875 4.03125V12.0938C2.6875 12.4501 2.82907 12.7919 3.08108 13.0439C3.33308 13.2959 3.67487 13.4375 4.03125 13.4375Z" fill="black"/>
<path d="M81.9688 72.5625C81.6124 72.5625 81.2706 72.7041 81.0186 72.9561C80.7666 73.2081 80.625 73.5499 80.625 73.9062V80.625H73.9062C73.5499 80.625 73.2081 80.7666 72.9561 81.0186C72.7041 81.2706 72.5625 81.6124 72.5625 81.9688C72.5625 82.3251 72.7041 82.6669 72.9561 82.9189C73.2081 83.1709 73.5499 83.3125 73.9062 83.3125H81.9688C82.3251 83.3125 82.6669 83.1709 82.9189 82.9189C83.1709 82.6669 83.3125 82.3251 83.3125 81.9688V73.9062C83.3125 73.5499 83.1709 73.2081 82.9189 72.9561C82.6669 72.7041 82.3251 72.5625 81.9688 72.5625Z" fill="black"/>
<path d="M4.03125 83.3125H12.0938C12.4501 83.3125 12.7919 83.1709 13.0439 82.9189C13.2959 82.6669 13.4375 82.3251 13.4375 81.9688C13.4375 81.6124 13.2959 81.2706 13.0439 81.0186C12.7919 80.7666 12.4501 80.625 12.0938 80.625H5.375V73.9062C5.375 73.5499 5.23343 73.2081 4.98142 72.9561C4.72942 72.7041 4.38763 72.5625 4.03125 72.5625C3.67487 72.5625 3.33308 72.7041 3.08108 72.9561C2.82907 73.2081 2.6875 73.5499 2.6875 73.9062V81.9688C2.6875 82.3251 2.82907 82.6669 3.08108 82.9189C3.33308 83.1709 3.67487 83.3125 4.03125 83.3125Z" fill="black"/>
<path d="M8.0625 9.40625V33.5938C8.0625 33.9501 8.20407 34.2919 8.45608 34.5439C8.70808 34.7959 9.04987 34.9375 9.40625 34.9375H33.5938C33.9501 34.9375 34.2919 34.7959 34.5439 34.5439C34.7959 34.2919 34.9375 33.9501 34.9375 33.5938V9.40625C34.9375 9.04987 34.7959 8.70808 34.5439 8.45608C34.2919 8.20407 33.9501 8.0625 33.5938 8.0625H9.40625C9.04987 8.0625 8.70808 8.20407 8.45608 8.45608C8.20407 8.70808 8.0625 9.04987 8.0625 9.40625ZM10.75 10.75H32.25V32.25H10.75V10.75Z" fill="black"/>
<path d="M28.2188 13.4375H14.7812C14.4249 13.4375 14.0831 13.5791 13.8311 13.8311C13.5791 14.0831 13.4375 14.4249 13.4375 14.7812V28.2188C13.4375 28.5751 13.5791 28.9169 13.8311 29.1689C14.0831 29.4209 14.4249 29.5625 14.7812 29.5625H28.2188C28.5751 29.5625 28.9169 29.4209 29.1689 29.1689C29.4209 28.9169 29.5625 28.5751 29.5625 28.2188V14.7812C29.5625 14.4249 29.4209 14.0831 29.1689 13.8311C28.9169 13.5791 28.5751 13.4375 28.2188 13.4375ZM26.875 26.875H16.125V16.125H26.875V26.875Z" fill="black"/>
<path d="M28.2188 56.4375H14.7812C14.4249 56.4375 14.0831 56.5791 13.8311 56.8311C13.5791 57.0831 13.4375 57.4249 13.4375 57.7812V71.2188C13.4375 71.5751 13.5791 71.9169 13.8311 72.1689C14.0831 72.4209 14.4249 72.5625 14.7812 72.5625H28.2188C28.5751 72.5625 28.9169 72.4209 29.1689 72.1689C29.4209 71.9169 29.5625 71.5751 29.5625 71.2188V57.7812C29.5625 57.4249 29.4209 57.0831 29.1689 56.8311C28.9169 56.5791 28.5751 56.4375 28.2188 56.4375ZM26.875 69.875H16.125V59.125H26.875V69.875Z" fill="black"/>
<path d="M71.2188 13.4375H57.7812C57.4249 13.4375 57.0831 13.5791 56.8311 13.8311C56.5791 14.0831 56.4375 14.4249 56.4375 14.7812V28.2188C56.4375 28.5751 56.5791 28.9169 56.8311 29.1689C57.0831 29.4209 57.4249 29.5625 57.7812 29.5625H71.2188C71.5751 29.5625 71.9169 29.4209 72.1689 29.1689C72.4209 28.9169 72.5625 28.5751 72.5625 28.2188V14.7812C72.5625 14.4249 72.4209 14.0831 72.1689 13.8311C71.9169 13.5791 71.5751 13.4375 71.2188 13.4375ZM69.875 26.875H59.125V16.125H69.875V26.875Z" fill="black"/>
<path d="M52.4062 34.8535H76.5938C76.9501 34.8535 77.2919 34.7119 77.5439 34.4599C77.7959 34.2079 77.9375 33.8661 77.9375 33.5098V9.40625C77.9375 9.04987 77.7959 8.70808 77.5439 8.45608C77.2919 8.20407 76.9501 8.0625 76.5938 8.0625H52.4062C52.0499 8.0625 51.7081 8.20407 51.4561 8.45608C51.2041 8.70808 51.0625 9.04987 51.0625 9.40625V33.5098C51.0625 33.8661 51.2041 34.2079 51.4561 34.4599C51.7081 34.7119 52.0499 34.8535 52.4062 34.8535ZM53.75 10.75H75.25V32.166H53.75V10.75Z" fill="black"/>
<path d="M8.0625 76.5938C8.0625 76.9501 8.20407 77.2919 8.45608 77.5439C8.70808 77.7959 9.04987 77.9375 9.40625 77.9375H33.5938C33.9501 77.9375 34.2919 77.7959 34.5439 77.5439C34.7959 77.2919 34.9375 76.9501 34.9375 76.5938V52.4062C34.9375 52.0499 34.7959 51.7081 34.5439 51.4561C34.2919 51.2041 33.9501 51.0625 33.5938 51.0625H9.40625C9.04987 51.0625 8.70808 51.2041 8.45608 51.4561C8.20407 51.7081 8.0625 52.0499 8.0625 52.4062V76.5938ZM10.75 53.75H32.25V75.25H10.75V53.75Z" fill="black"/>
<path d="M38.9688 18.8125C39.3251 18.8125 39.6669 18.6709 39.9189 18.4189C40.1709 18.1669 40.3125 17.8251 40.3125 17.4688V10.75H41.6562C42.0126 10.75 42.3544 10.6084 42.6064 10.3564C42.8584 10.1044 43 9.76263 43 9.40625C43 9.04987 42.8584 8.70808 42.6064 8.45608C42.3544 8.20407 42.0126 8.0625 41.6562 8.0625H38.9688C38.6124 8.0625 38.2706 8.20407 38.0186 8.45608C37.7666 8.70808 37.625 9.04987 37.625 9.40625V17.4688C37.625 17.8251 37.7666 18.1669 38.0186 18.4189C38.2706 18.6709 38.6124 18.8125 38.9688 18.8125Z" fill="black"/>
<path d="M47.0312 10.75C47.7734 10.75 48.375 10.1484 48.375 9.40625C48.375 8.66412 47.7734 8.0625 47.0312 8.0625C46.2891 8.0625 45.6875 8.66412 45.6875 9.40625C45.6875 10.1484 46.2891 10.75 47.0312 10.75Z" fill="black"/>
<path d="M44.3438 18.8125H47.0312C47.3876 18.8125 47.7294 18.6709 47.9814 18.4189C48.2334 18.1669 48.375 17.8251 48.375 17.4688V14.7812C48.375 14.4249 48.2334 14.0831 47.9814 13.8311C47.7294 13.5791 47.3876 13.4375 47.0312 13.4375C46.6749 13.4375 46.3331 13.5791 46.0811 13.8311C45.8291 14.0831 45.6875 14.4249 45.6875 14.7812V16.125H44.3438C43.9874 16.125 43.6456 16.2666 43.3936 16.5186C43.1416 16.7706 43 17.1124 43 17.4688C43 17.8251 43.1416 18.1669 43.3936 18.4189C43.6456 18.6709 43.9874 18.8125 44.3438 18.8125Z" fill="black"/>
<path d="M47.0312 22.8438H44.3438C43.9874 22.8438 43.6456 22.9853 43.3936 23.2373C43.1416 23.4893 43 23.8311 43 24.1875V29.5625C43 29.9189 43.1416 30.2607 43.3936 30.5127C43.6456 30.7647 43.9874 30.9062 44.3438 30.9062C44.7001 30.9062 45.0419 30.7647 45.2939 30.5127C45.5459 30.2607 45.6875 29.9189 45.6875 29.5625V25.5312H47.0312C47.3876 25.5312 47.7294 25.3897 47.9814 25.1377C48.2334 24.8857 48.375 24.5439 48.375 24.1875C48.375 23.8311 48.2334 23.4893 47.9814 23.2373C47.7294 22.9853 47.3876 22.8438 47.0312 22.8438Z" fill="black"/>
<path d="M38.9688 34.9375H47.0312C47.3876 34.9375 47.7294 34.7959 47.9814 34.5439C48.2334 34.2919 48.375 33.9501 48.375 33.5938C48.375 33.2374 48.2334 32.8956 47.9814 32.6436C47.7294 32.3916 47.3876 32.25 47.0312 32.25H40.3125V22.8438C40.3125 22.4874 40.1709 22.1456 39.9189 21.8936C39.6669 21.6416 39.3251 21.5 38.9688 21.5C38.6124 21.5 38.2706 21.6416 38.0186 21.8936C37.7666 22.1456 37.625 22.4874 37.625 22.8438V33.5938C37.625 33.9501 37.7666 34.2919 38.0186 34.5439C38.2706 34.7959 38.6124 34.9375 38.9688 34.9375Z" fill="black"/>
<path d="M49.7188 67.1875C49.3624 67.1875 49.0206 67.3291 48.7686 67.5811C48.5166 67.8331 48.375 68.1749 48.375 68.5312V75.25H44.3438C43.9874 75.25 43.6456 75.3916 43.3936 75.6436C43.1416 75.8956 43 76.2374 43 76.5938C43 76.9501 43.1416 77.2919 43.3936 77.5439C43.6456 77.7959 43.9874 77.9375 44.3438 77.9375H49.7188C50.0751 77.9375 50.4169 77.7959 50.6689 77.5439C50.9209 77.2919 51.0625 76.9501 51.0625 76.5938V68.5312C51.0625 68.1749 50.9209 67.8331 50.6689 67.5811C50.4169 67.3291 50.0751 67.1875 49.7188 67.1875Z" fill="black"/>
<path d="M38.9688 77.9375C39.7109 77.9375 40.3125 77.3359 40.3125 76.5938C40.3125 75.8516 39.7109 75.25 38.9688 75.25C38.2266 75.25 37.625 75.8516 37.625 76.5938C37.625 77.3359 38.2266 77.9375 38.9688 77.9375Z" fill="black"/>
<path d="M38.9688 72.5625C39.3251 72.5625 39.6669 72.4209 39.9189 72.1689C40.1709 71.9169 40.3125 71.5751 40.3125 71.2188V69.875H44.3438C44.7001 69.875 45.0419 69.7334 45.2939 69.4814C45.5459 69.2294 45.6875 68.8876 45.6875 68.5312C45.6875 68.1749 45.5459 67.8331 45.2939 67.5811C45.0419 67.3291 44.7001 67.1875 44.3438 67.1875H38.9688C38.6124 67.1875 38.2706 67.3291 38.0186 67.5811C37.7666 67.8331 37.625 68.1749 37.625 68.5312V71.2188C37.625 71.5751 37.7666 71.9169 38.0186 72.1689C38.2706 72.4209 38.6124 72.5625 38.9688 72.5625Z" fill="black"/>
<path d="M38.9688 53.75C39.3251 53.75 39.6669 53.6084 39.9189 53.3564C40.1709 53.1044 40.3125 52.7626 40.3125 52.4062V45.6875H43C43.3564 45.6875 43.6982 45.5459 43.9502 45.2939C44.2022 45.0419 44.3438 44.7001 44.3438 44.3438C44.3438 43.9874 44.2022 43.6456 43.9502 43.3936C43.6982 43.1416 43.3564 43 43 43H38.9688C38.6124 43 38.2706 43.1416 38.0186 43.3936C37.7666 43.6456 37.625 43.9874 37.625 44.3438V52.4062C37.625 52.7626 37.7666 53.1044 38.0186 53.3564C38.2706 53.6084 38.6124 53.75 38.9688 53.75Z" fill="black"/>
<path d="M38.9688 40.3125H47.0312V47.0312C47.0312 47.3876 47.1728 47.7294 47.4248 47.9814C47.6768 48.2334 48.0186 48.375 48.375 48.375C48.7314 48.375 49.0732 48.2334 49.3252 47.9814C49.5772 47.7294 49.7188 47.3876 49.7188 47.0312V38.9688C49.7188 38.6124 49.5772 38.2706 49.3252 38.0186C49.0732 37.7666 48.7314 37.625 48.375 37.625H38.9688C38.6124 37.625 38.2706 37.7666 38.0186 38.0186C37.7666 38.2706 37.625 38.6124 37.625 38.9688C37.625 39.3251 37.7666 39.6669 38.0186 39.9189C38.2706 40.1709 38.6124 40.3125 38.9688 40.3125Z" fill="black"/>
<path d="M8.0625 47.0312C8.0625 47.3876 8.20407 47.7294 8.45608 47.9814C8.70808 48.2334 9.04987 48.375 9.40625 48.375H17.4688C17.8251 48.375 18.1669 48.2334 18.4189 47.9814C18.6709 47.7294 18.8125 47.3876 18.8125 47.0312C18.8125 46.6749 18.6709 46.3331 18.4189 46.0811C18.1669 45.8291 17.8251 45.6875 17.4688 45.6875H10.75V44.3438C10.75 43.9874 10.6084 43.6456 10.3564 43.3936C10.1044 43.1416 9.76263 43 9.40625 43C9.04987 43 8.70808 43.1416 8.45608 43.3936C8.20407 43.6456 8.0625 43.9874 8.0625 44.3438V47.0312Z" fill="black"/>
<path d="M14.7812 43C15.1376 43 15.4794 42.8584 15.7314 42.6064C15.9834 42.3544 16.125 42.0126 16.125 41.6562V38.9688C16.125 38.6124 15.9834 38.2706 15.7314 38.0186C15.4794 37.7666 15.1376 37.625 14.7812 37.625H9.40625C9.04987 37.625 8.70808 37.7666 8.45608 38.0186C8.20407 38.2706 8.0625 38.6124 8.0625 38.9688C8.0625 39.3251 8.20407 39.6669 8.45608 39.9189C8.70808 40.1709 9.04987 40.3125 9.40625 40.3125H13.4375V41.6562C13.4375 42.0126 13.5791 42.3544 13.8311 42.6064C14.0831 42.8584 14.4249 43 14.7812 43Z" fill="black"/>
<path d="M20.1562 37.625C19.7999 37.625 19.4581 37.7666 19.2061 38.0186C18.9541 38.2706 18.8125 38.6124 18.8125 38.9688V41.6562C18.8125 42.0126 18.9541 42.3544 19.2061 42.6064C19.4581 42.8584 19.7999 43 20.1562 43H28.2188C28.5751 43 28.9169 42.8584 29.1689 42.6064C29.4209 42.3544 29.5625 42.0126 29.5625 41.6562C29.5625 41.2999 29.4209 40.9581 29.1689 40.7061C28.9169 40.4541 28.5751 40.3125 28.2188 40.3125H21.5V38.9688C21.5 38.6124 21.3584 38.2706 21.1064 38.0186C20.8544 37.7666 20.5126 37.625 20.1562 37.625Z" fill="black"/>
<path d="M34.9375 38.9688C34.9375 38.6124 34.7959 38.2706 34.5439 38.0186C34.2919 37.7666 33.9501 37.625 33.5938 37.625C33.2374 37.625 32.8956 37.7666 32.6436 38.0186C32.3916 38.2706 32.25 38.6124 32.25 38.9688V45.6875H22.8438C22.4874 45.6875 22.1456 45.8291 21.8936 46.0811C21.6416 46.3331 21.5 46.6749 21.5 47.0312C21.5 47.3876 21.6416 47.7294 21.8936 47.9814C22.1456 48.2334 22.4874 48.375 22.8438 48.375H33.5938C33.9501 48.375 34.2919 48.2334 34.5439 47.9814C34.7959 47.7294 34.9375 47.3876 34.9375 47.0312V38.9688Z" fill="black"/>
<path d="M77.9375 38.9688C77.9375 38.6124 77.7959 38.2706 77.5439 38.0186C77.2919 37.7666 76.9501 37.625 76.5938 37.625H68.5312C68.1749 37.625 67.8331 37.7666 67.5811 38.0186C67.3291 38.2706 67.1875 38.6124 67.1875 38.9688C67.1875 39.3251 67.3291 39.6669 67.5811 39.9189C67.8331 40.1709 68.1749 40.3125 68.5312 40.3125H75.25V41.6562C75.25 42.0126 75.3916 42.3544 75.6436 42.6064C75.8956 42.8584 76.2374 43 76.5938 43C76.9501 43 77.2919 42.8584 77.5439 42.6064C77.7959 42.3544 77.9375 42.0126 77.9375 41.6562V38.9688Z" fill="black"/>
<path d="M53.75 53.75C54.4921 53.75 55.0938 53.1484 55.0938 52.4062C55.0938 51.6641 54.4921 51.0625 53.75 51.0625C53.0079 51.0625 52.4062 51.6641 52.4062 52.4062C52.4062 53.1484 53.0079 53.75 53.75 53.75Z" fill="black"/>
<path d="M72.5625 47.0312V44.3438C72.5625 43.9874 72.4209 43.6456 72.1689 43.3936C71.9169 43.1416 71.5751 43 71.2188 43C70.8624 43 70.5206 43.1416 70.2686 43.3936C70.0166 43.6456 69.875 43.9874 69.875 44.3438V45.6875H64.5C64.1436 45.6875 63.8018 45.8291 63.5498 46.0811C63.2978 46.3331 63.1562 46.6749 63.1562 47.0312C63.1562 47.3876 63.2978 47.7294 63.5498 47.9814C63.8018 48.2334 64.1436 48.375 64.5 48.375H71.2188C71.5751 48.375 71.9169 48.2334 72.1689 47.9814C72.4209 47.7294 72.5625 47.3876 72.5625 47.0312Z" fill="black"/>
<path d="M71.2188 61.8125H65.8438C65.4874 61.8125 65.1456 61.9541 64.8936 62.2061C64.6416 62.4581 64.5 62.7999 64.5 63.1562C64.5 63.5126 64.6416 63.8544 64.8936 64.1064C65.1456 64.3584 65.4874 64.5 65.8438 64.5H69.875V65.8438C69.875 66.2001 70.0166 66.5419 70.2686 66.7939C70.5206 67.0459 70.8624 67.1875 71.2188 67.1875C71.5751 67.1875 71.9169 67.0459 72.1689 66.7939C72.4209 66.5419 72.5625 66.2001 72.5625 65.8438V63.1562C72.5625 62.7999 72.4209 62.4581 72.1689 62.2061C71.9169 61.9541 71.5751 61.8125 71.2188 61.8125Z" fill="black"/>
<path d="M71.2188 72.5625C71.9609 72.5625 72.5625 71.9609 72.5625 71.2188C72.5625 70.4766 71.9609 69.875 71.2188 69.875C70.4766 69.875 69.875 70.4766 69.875 71.2188C69.875 71.9609 70.4766 72.5625 71.2188 72.5625Z" fill="black"/>
<path d="M60.4688 64.5C61.2109 64.5 61.8125 63.8984 61.8125 63.1562C61.8125 62.4141 61.2109 61.8125 60.4688 61.8125C59.7266 61.8125 59.125 62.4141 59.125 63.1562C59.125 63.8984 59.7266 64.5 60.4688 64.5Z" fill="black"/>
<path d="M65.8438 69.875H61.8125V68.5312C61.8125 68.1749 61.6709 67.8331 61.4189 67.5811C61.1669 67.3291 60.8251 67.1875 60.4688 67.1875C60.1124 67.1875 59.7706 67.3291 59.5186 67.5811C59.2666 67.8331 59.125 68.1749 59.125 68.5312V71.2188C59.125 71.5751 59.2666 71.9169 59.5186 72.1689C59.7706 72.4209 60.1124 72.5625 60.4688 72.5625H65.8438C66.2001 72.5625 66.5419 72.4209 66.7939 72.1689C67.0459 71.9169 67.1875 71.5751 67.1875 71.2188C67.1875 70.8624 67.0459 70.5206 66.7939 70.2686C66.5419 70.0166 66.2001 69.875 65.8438 69.875Z" fill="black"/>
<path d="M59.125 43C58.7686 43 58.4268 43.1416 58.1748 43.3936C57.9228 43.6456 57.7812 43.9874 57.7812 44.3438V52.4062C57.7812 52.7626 57.9228 53.1044 58.1748 53.3564C58.4268 53.6084 58.7686 53.75 59.125 53.75H65.6758C66.0322 53.75 66.374 53.6084 66.626 53.3564C66.878 53.1044 67.0195 52.7626 67.0195 52.4062C67.0195 52.0499 66.878 51.7081 66.626 51.4561C66.374 51.2041 66.0322 51.0625 65.6758 51.0625H60.4688V44.3438C60.4688 43.9874 60.3272 43.6456 60.0752 43.3936C59.8232 43.1416 59.4814 43 59.125 43Z" fill="black"/>
<path d="M63.1562 37.625H53.75C53.3936 37.625 53.0518 37.7666 52.7998 38.0186C52.5478 38.2706 52.4062 38.6124 52.4062 38.9688V47.0312C52.4062 47.3876 52.5478 47.7294 52.7998 47.9814C53.0518 48.2334 53.3936 48.375 53.75 48.375C54.1064 48.375 54.4482 48.2334 54.7002 47.9814C54.9522 47.7294 55.0938 47.3876 55.0938 47.0312V40.3125H63.1562C63.5126 40.3125 63.8544 40.1709 64.1064 39.9189C64.3584 39.6669 64.5 39.3251 64.5 38.9688C64.5 38.6124 64.3584 38.2706 64.1064 38.0186C63.8544 37.7666 63.5126 37.625 63.1562 37.625Z" fill="black"/>
<path d="M38.9688 64.5H49.7188C50.0751 64.5 50.4169 64.3584 50.6689 64.1064C50.9209 63.8544 51.0625 63.5126 51.0625 63.1562V57.7812C51.0625 57.4249 50.9209 57.0831 50.6689 56.8311C50.4169 56.5791 50.0751 56.4375 49.7188 56.4375H38.9688C38.6124 56.4375 38.2706 56.5791 38.0186 56.8311C37.7666 57.0831 37.625 57.4249 37.625 57.7812V63.1562C37.625 63.5126 37.7666 63.8544 38.0186 64.1064C38.2706 64.3584 38.6124 64.5 38.9688 64.5ZM40.3125 59.125H48.375V61.8125H40.3125V59.125Z" fill="black"/>
<path d="M55.0938 77.9375H76.5938C76.9501 77.9375 77.2919 77.7959 77.5439 77.5439C77.7959 77.2919 77.9375 76.9501 77.9375 76.5938V57.7812C77.9375 57.4249 77.7959 57.0831 77.5439 56.8311C77.2919 56.5791 76.9501 56.4375 76.5938 56.4375H55.0938C54.7374 56.4375 54.3956 56.5791 54.1436 56.8311C53.8916 57.0831 53.75 57.4249 53.75 57.7812V76.5938C53.75 76.9501 53.8916 77.2919 54.1436 77.5439C54.3956 77.7959 54.7374 77.9375 55.0938 77.9375ZM56.4375 59.125H75.25V75.25H56.4375V59.125Z" fill="black"/>
<path d="M48.375 51.0625H45.8555C45.4991 51.0625 45.1573 51.2041 44.9053 51.4561C44.6533 51.7081 44.5117 52.0499 44.5117 52.4062C44.5117 52.7626 44.6533 53.1044 44.9053 53.3564C45.1573 53.6084 45.4991 53.75 45.8555 53.75H48.375C48.7314 53.75 49.0732 53.6084 49.3252 53.3564C49.5772 53.1044 49.7188 52.7626 49.7188 52.4062C49.7188 52.0499 49.5772 51.7081 49.3252 51.4561C49.0732 51.2041 48.7314 51.0625 48.375 51.0625Z" fill="black"/>
<path d="M77.9375 47.0312C77.9375 46.6749 77.7959 46.3331 77.5439 46.0811C77.2919 45.8291 76.9501 45.6875 76.5938 45.6875C76.2374 45.6875 75.8956 45.8291 75.6436 46.0811C75.3916 46.3331 75.25 46.6749 75.25 47.0312V51.0625H71.2188C70.8624 51.0625 70.5206 51.2041 70.2686 51.4561C70.0166 51.7081 69.875 52.0499 69.875 52.4062C69.875 52.7626 70.0166 53.1044 70.2686 53.3564C70.5206 53.6084 70.8624 53.75 71.2188 53.75H76.5938C76.9501 53.75 77.2919 53.6084 77.5439 53.3564C77.7959 53.1044 77.9375 52.7626 77.9375 52.4062V47.0312Z" fill="black"/>
</svg>
