<svg width="11" height="24" viewBox="0 0 11 24" fill="none" xmlns="http://www.w3.org/2000/svg">
<path fill-rule="evenodd" clip-rule="evenodd" d="M9.32664 5.66661C8.93391 5.66037 8.61599 5.98448 8.61599 6.38962L8.60352 18.5312C8.59729 21.2612 6.75209 22.4829 5.03781 22.4704C3.32352 22.4517 1.47833 21.1989 1.48456 18.4751C1.48456 16.3871 1.49703 8.02263 1.50326 3.84038C1.50326 2.88052 1.87729 2.13258 2.55053 1.73991C3.21131 1.35347 4.07157 1.3597 4.73235 1.7586C5.4056 2.16374 5.77339 2.91792 5.77339 3.87778L5.75469 17.8705C5.75469 18.3255 5.64872 18.6995 5.4617 18.9364C5.34326 19.086 5.18742 19.1732 5.03157 19.1732C4.68248 19.167 4.32092 18.7182 4.32716 17.8768C4.32716 17.8768 4.33962 7.51153 4.34586 7.11263C4.34586 6.70749 4.02794 6.37715 3.63521 6.37715C3.24248 6.37715 2.92456 6.70126 2.92456 7.1064L2.90586 17.8705C2.90586 19.6781 3.97807 20.6317 5.03781 20.6442C5.62378 20.6504 6.17859 20.3699 6.57131 19.8713C6.96404 19.3727 7.17599 18.687 7.17599 17.8892L7.19469 3.89647C7.19469 2.41305 6.55885 1.17895 5.443 0.512032C4.35209 -0.148651 2.93079 -0.161117 1.83365 0.480868C0.717806 1.13532 0.0757279 2.35696 0.0694942 3.84038C0.0632604 8.01639 0.0570266 16.3809 0.0507929 18.4751C0.0445591 22.0403 2.55053 23.9227 5.02534 23.9476C6.30326 23.96 7.58742 23.4677 8.53495 22.5078C9.42015 21.604 10.0124 20.2827 10.0124 18.5562L10.0186 6.40832C10.0373 5.99695 9.71937 5.66661 9.32664 5.66661Z" fill="#001B36"/>
</svg>
