<svg width="590" height="200" viewBox="0 0 590 200" fill="none" xmlns="http://www.w3.org/2000/svg">
<rect width="590" height="200" fill="white"/>
<rect x="0.5" y="0.5" width="589" height="199" stroke="black" stroke-opacity="0.5"/>
<path d="M236.044 105.42C236.548 107.172 237.46 108.492 238.78 109.38C240.1 110.244 241.744 110.676 243.712 110.676C244.768 110.676 245.704 110.436 246.52 109.956C247.36 109.452 248.008 108.804 248.464 108.012C248.92 107.196 249.148 106.332 249.148 105.42C249.148 104.556 248.932 103.728 248.5 102.936C248.044 102.144 247.372 101.472 246.484 100.92C245.62 100.368 244.444 99.732 242.956 99.012C241.516 98.34 240.352 97.728 239.464 97.176C238.576 96.624 237.832 95.928 237.232 95.088C236.632 94.224 236.332 93.204 236.332 92.028C236.332 90.804 236.728 89.724 237.52 88.788C238.312 87.828 239.356 87.096 240.652 86.592C241.972 86.064 243.376 85.8 244.864 85.8C245.776 85.8 246.736 85.896 247.744 86.088C248.776 86.256 249.532 86.46 250.012 86.7L250.984 85.908L251.812 90.696H251.488C251.176 89.232 250.492 88.104 249.436 87.312C248.38 86.52 247.12 86.124 245.656 86.124C244.456 86.124 243.412 86.34 242.524 86.772C241.636 87.18 240.964 87.744 240.508 88.464C240.052 89.16 239.824 89.916 239.824 90.732C239.824 91.164 239.896 91.596 240.04 92.028C240.328 93.036 240.94 93.888 241.876 94.584C242.836 95.28 244.204 96.06 245.98 96.924C247.78 97.812 249.196 98.628 250.228 99.372C251.284 100.116 252.028 101.04 252.46 102.144C252.772 103.008 252.928 103.8 252.928 104.52C252.928 105.648 252.628 106.692 252.028 107.652C251.428 108.612 250.528 109.404 249.328 110.028C248.152 110.628 246.7 110.964 244.972 111.036L243.82 111.072C242.428 111.072 241.192 110.964 240.112 110.748C239.032 110.532 238.192 110.232 237.592 109.848L236.404 111.036L235.72 105.42H236.044ZM260.238 111.072C259.038 111.072 258.15 110.688 257.574 109.92C256.998 109.128 256.638 108.156 256.494 107.004C256.35 105.852 256.278 104.352 256.278 102.504L256.314 93.216H254.73V92.82C255.666 92.58 256.554 92.052 257.394 91.236C258.234 90.42 258.786 89.628 259.05 88.86H259.446V92.856H261.318V93.216H259.446V102.504C259.446 105.048 259.602 107.016 259.914 108.408C260.226 109.776 260.886 110.46 261.894 110.46C262.494 110.46 262.974 110.292 263.334 109.956C263.694 109.596 264.042 109.116 264.378 108.516H264.63C264.318 109.404 263.742 110.052 262.902 110.46C262.086 110.868 261.198 111.072 260.238 111.072ZM281.418 93.216C280.314 93.288 279.762 93.672 279.762 94.368L279.798 110.028C279.894 110.268 280.134 110.472 280.518 110.64C280.902 110.784 281.202 110.856 281.418 110.856V111.036L276.702 111V107.976C275.382 110.016 273.786 111.096 271.914 111.216L271.23 111.252C269.742 111.252 268.602 110.94 267.81 110.316C267.042 109.668 266.526 108.792 266.262 107.688C265.998 106.56 265.878 105.12 265.902 103.368L265.938 94.368C265.938 93.672 265.386 93.288 264.282 93.216V93.036H270.726V93.216C270.006 93.264 269.55 93.408 269.358 93.648C269.166 93.888 269.07 94.164 269.07 94.476V103.368C269.07 105.912 269.274 107.76 269.682 108.912C270.09 110.064 270.87 110.64 272.022 110.64C272.958 110.64 273.834 110.352 274.65 109.776C275.466 109.176 276.15 108.324 276.702 107.22L276.666 94.476C276.666 94.164 276.57 93.888 276.378 93.648C276.186 93.408 275.73 93.264 275.01 93.216V93.036H281.418V93.216ZM303.265 84.072C302.161 84.144 301.609 84.54 301.609 85.26L301.645 110.028C301.741 110.268 301.981 110.472 302.365 110.64C302.749 110.784 303.049 110.856 303.265 110.856V111.036L298.513 111V109.596C297.937 109.98 297.145 110.352 296.137 110.712C295.153 111.048 294.037 111.216 292.789 111.216C290.797 111.216 289.105 110.82 287.713 110.028C286.321 109.212 285.277 108.144 284.581 106.824C283.909 105.504 283.573 104.076 283.573 102.54C283.573 100.908 283.945 99.372 284.689 97.932C285.433 96.468 286.525 95.28 287.965 94.368C289.429 93.456 291.169 93 293.185 93C294.505 93 295.609 93.192 296.497 93.576C297.409 93.936 298.069 94.296 298.477 94.656V85.332C298.477 85.02 298.381 84.744 298.189 84.504C297.997 84.264 297.541 84.12 296.821 84.072V83.892H303.265V84.072ZM293.617 110.82C294.865 110.82 295.933 110.532 296.821 109.956C297.709 109.38 298.273 108.636 298.513 107.724L298.477 95.664C298.093 95.184 297.493 94.704 296.677 94.224C295.885 93.72 294.877 93.456 293.653 93.432C292.213 93.408 290.965 93.828 289.909 94.692C288.853 95.532 288.037 96.66 287.461 98.076C286.909 99.468 286.633 100.944 286.633 102.504C286.633 103.968 286.885 105.336 287.389 106.608C287.917 107.856 288.697 108.876 289.729 109.668C290.785 110.436 292.081 110.82 293.617 110.82ZM307.923 91.02C307.443 91.02 307.023 90.852 306.663 90.516C306.327 90.156 306.159 89.736 306.159 89.256C306.159 88.776 306.327 88.368 306.663 88.032C307.023 87.672 307.443 87.492 307.923 87.492C308.403 87.492 308.811 87.672 309.147 88.032C309.507 88.368 309.687 88.776 309.687 89.256C309.687 89.736 309.507 90.156 309.147 90.516C308.811 90.852 308.403 91.02 307.923 91.02ZM309.867 109.56C309.867 109.848 309.963 110.124 310.155 110.388C310.347 110.628 310.803 110.772 311.523 110.82V111H305.079V110.82C306.183 110.748 306.735 110.364 306.735 109.668L306.699 94.008C306.603 93.768 306.363 93.576 305.979 93.432C305.595 93.264 305.295 93.18 305.079 93.18V93L309.831 93.036V93.576L309.867 109.56ZM324.167 111.36C323.663 111.432 323.171 111.468 322.691 111.468C320.747 111.468 319.067 111 317.651 110.064C316.235 109.128 315.155 107.916 314.411 106.428C313.691 104.916 313.331 103.332 313.331 101.676C313.331 100.068 313.667 98.568 314.339 97.176C315.035 95.784 316.067 94.668 317.435 93.828C318.827 92.964 320.531 92.532 322.547 92.532C324.491 92.532 326.159 93 327.551 93.936C328.943 94.848 329.999 96.06 330.719 97.572C331.439 99.06 331.799 100.632 331.799 102.288C331.799 103.752 331.511 105.144 330.935 106.464C330.359 107.76 329.495 108.852 328.343 109.74C327.215 110.628 325.823 111.168 324.167 111.36ZM324.131 111C325.571 110.808 326.675 109.944 327.443 108.408C328.235 106.872 328.631 105.048 328.631 102.936C328.631 101.256 328.379 99.66 327.875 98.148C327.371 96.612 326.627 95.364 325.643 94.404C324.659 93.42 323.483 92.928 322.115 92.928C320.315 92.928 318.947 93.684 318.011 95.196C317.075 96.684 316.607 98.52 316.607 100.704C316.607 102.408 316.883 104.052 317.435 105.636C317.987 107.22 318.779 108.516 319.811 109.524C320.843 110.532 322.043 111.036 323.411 111.036C323.723 111.036 323.963 111.024 324.131 111ZM340.681 111.324C339.553 111.324 338.545 111.204 337.657 110.964C336.793 110.724 336.181 110.484 335.821 110.244L334.813 111.108L334.309 106.752H334.669C335.053 108.072 335.761 109.104 336.793 109.848C337.825 110.568 339.049 110.928 340.465 110.928C341.617 110.928 342.553 110.58 343.273 109.884C344.017 109.188 344.389 108.348 344.389 107.364C344.389 106.62 344.161 105.9 343.705 105.204C343.393 104.7 342.937 104.268 342.337 103.908C341.737 103.548 340.873 103.116 339.745 102.612C338.569 102.084 337.633 101.616 336.937 101.208C336.241 100.8 335.653 100.284 335.173 99.66C334.693 99.036 334.453 98.28 334.453 97.392C334.477 96 335.113 94.884 336.361 94.044C337.609 93.18 339.133 92.748 340.933 92.748C341.653 92.748 342.313 92.82 342.913 92.964C343.513 93.084 344.173 93.252 344.893 93.468L345.757 92.892L346.657 96.42H346.189C345.925 95.436 345.409 94.632 344.641 94.008C343.873 93.384 342.973 93.072 341.941 93.072C340.909 93.072 340.045 93.276 339.349 93.684C338.653 94.092 338.149 94.632 337.837 95.304C337.525 95.952 337.417 96.648 337.513 97.392C337.585 98.136 337.993 98.76 338.737 99.264C339.481 99.768 340.609 100.368 342.121 101.064C343.537 101.712 344.641 102.288 345.433 102.792C346.249 103.272 346.837 103.872 347.197 104.592C347.485 105.192 347.629 105.828 347.629 106.5C347.629 107.34 347.365 108.132 346.837 108.876C346.333 109.596 345.553 110.184 344.497 110.64C343.465 111.096 342.193 111.324 340.681 111.324Z" fill="black"/>
</svg>
