<svg width="24" height="24" viewBox="0 0 24 24" fill="none" xmlns="http://www.w3.org/2000/svg">
<g clip-path="url(#clip0_1731_11566)">
<path d="M21 0H3C1.34315 0 0 1.34315 0 3V21C0 22.6569 1.34315 24 3 24H21C22.6569 24 24 22.6569 24 21V3C24 1.34315 22.6569 0 21 0Z" fill="#CF2200"/>
<path d="M17.4042 16.34H16.375L16.3798 15.7423C16.3798 15.4767 16.5979 15.2594 16.8646 15.2594H16.9302C17.1973 15.2594 17.416 15.4767 17.416 15.7423L17.4042 16.34H17.4042ZM13.5444 15.0592C13.2833 15.0592 13.0698 15.2346 13.0698 15.4494V18.3563C13.0698 18.5706 13.2833 18.7456 13.5444 18.7456C13.8065 18.7456 14.0202 18.5706 14.0202 18.3563V15.4494C14.0202 15.2344 13.8065 15.0592 13.5444 15.0592ZM19.8125 13.4331V18.9631C19.8125 20.2896 18.6621 21.375 17.2562 21.375H6.74396C5.3375 21.375 4.1875 20.2896 4.1875 18.9631V13.4331C4.1875 12.1067 5.3375 11.021 6.74396 11.021H17.2562C18.6621 11.021 19.8125 12.1067 19.8125 13.4331ZM7.44521 19.5635V13.7383L8.74833 13.7388V12.8756L5.27458 12.8704V13.719L6.35896 13.7221V19.5635H7.44604L7.44521 19.5635ZM11.3515 14.606H10.265V17.7167C10.265 18.1667 10.2923 18.3917 10.2629 18.471C10.1746 18.7123 9.7775 18.9683 9.62271 18.4971C9.59646 18.4146 9.61958 18.1656 9.61917 17.7381L9.61479 14.606H8.53438L8.53771 17.6887C8.53771 18.1612 8.52708 18.5138 8.54146 18.674C8.56792 18.9567 8.55854 19.2865 8.82083 19.4746C9.30958 19.8269 10.2465 19.4221 10.4808 18.9188L10.4788 19.561L11.3513 19.5621V14.606H11.3515ZM14.8271 18.1681L14.8248 15.5792C14.8248 14.5925 14.0858 14.0015 13.0837 14.7998L13.0881 12.875L12.0027 12.8767L11.9975 19.5204L12.8898 19.5073L12.971 19.0935C14.1119 20.14 14.8287 19.4231 14.8271 18.1681L14.8271 18.1681ZM18.2273 17.825L17.4125 17.8294C17.4125 17.8617 17.4104 17.899 17.4104 17.9396V18.3942C17.4104 18.6373 17.2094 18.8354 16.9652 18.8354H16.8056C16.561 18.8354 16.3602 18.6373 16.3602 18.3942V18.3437V17.8437V17.1985H18.2256V16.4965C18.2256 15.9833 18.2125 15.4704 18.17 15.1771C18.0367 14.2492 16.7342 14.1019 16.0763 14.5769C15.8696 14.7252 15.7119 14.9237 15.6202 15.1906C15.5275 15.4575 15.4817 15.8221 15.4817 16.2852V17.8287C15.4819 20.395 18.599 20.0323 18.2271 17.825L18.2273 17.825ZM14.0485 9.44417C14.1046 9.58042 14.1917 9.69083 14.3098 9.77417C14.4265 9.85625 14.5758 9.8975 14.7544 9.8975C14.911 9.8975 15.0498 9.85521 15.1706 9.76792C15.291 9.68104 15.3925 9.55125 15.4752 9.37813L15.4548 9.80438H16.6658V4.65417H15.7125V8.6625C15.7125 8.87958 15.5338 9.05729 15.3152 9.05729C15.0979 9.05729 14.9185 8.87958 14.9185 8.6625V4.65417H13.9235V8.12792C13.9235 8.57042 13.9315 8.86542 13.9446 9.015C13.9585 9.16354 13.9925 9.30604 14.0485 9.44417ZM10.3785 6.53542C10.3785 6.04104 10.4198 5.655 10.5017 5.37667C10.5842 5.09938 10.7323 4.87646 10.9469 4.70833C11.1608 4.53938 11.4348 4.45479 11.7679 4.45479C12.0481 4.45479 12.2881 4.50979 12.4887 4.6175C12.6902 4.72583 12.8454 4.86646 12.9533 5.04C13.0631 5.21417 13.1377 5.39312 13.1775 5.57625C13.2181 5.76187 13.2381 6.04187 13.2381 6.41958V7.72208C13.2381 8.19979 13.219 8.55125 13.1819 8.77438C13.145 8.99813 13.0658 9.20563 12.9433 9.40021C12.8223 9.59271 12.6663 9.73667 12.4771 9.82854C12.2858 9.92125 12.0671 9.96667 11.82 9.96667C11.544 9.96667 11.3115 9.92854 11.1198 9.84896C10.9275 9.76979 10.779 9.65042 10.6731 9.49187C10.5663 9.33313 10.491 9.13979 10.4456 8.91437C10.4 8.68917 10.3783 8.35042 10.3783 7.89896V6.53542H10.3785ZM11.3271 8.58125C11.3271 8.87292 11.5442 9.11104 11.8085 9.11104C12.0731 9.11104 12.2892 8.87292 12.2892 8.58125V5.83958C12.2892 5.54833 12.0731 5.31021 11.8085 5.31021C11.5442 5.31021 11.3271 5.54833 11.3271 5.83958V8.58125ZM7.97542 9.96563H9.11792L9.12 6.01562L10.47 2.63188H9.22042L8.50271 5.14521L7.77479 2.625H6.53812L7.97437 6.0175L7.97645 9.96563H7.97542Z" fill="white"/>
</g>
<defs>
<clipPath id="clip0_1731_11566">
<rect width="24" height="24" fill="white"/>
</clipPath>
</defs>
</svg>
