<svg width="219" height="66" viewBox="0 0 219 66" fill="none" xmlns="http://www.w3.org/2000/svg">
<path d="M45.1308 2.71002C45.3436 2.71002 45.5225 2.78255 45.6675 2.92701C45.8126 3.07267 45.8851 3.24675 45.8851 3.44983C45.8851 3.65292 45.8126 3.83183 45.6675 3.98596C45.5225 4.1413 45.3436 4.21866 45.1308 4.21866C38.516 4.21866 31.1371 4.58615 22.9943 5.32053V5.49461C22.8783 6.05612 22.7139 6.90231 22.5011 8.0338C22.2883 9.16528 21.9402 11.2542 21.4567 14.3005C20.9731 17.3468 20.5379 20.3979 20.1511 23.4533C19.7643 26.5099 19.4258 30.0301 19.1357 34.0144C18.8455 37.9994 18.7005 41.7118 18.7005 45.1552C18.7005 48.5974 18.9277 52.0209 19.3823 55.4256C19.8368 58.8297 20.5379 61.6633 21.4857 63.9256C21.563 64.1197 21.563 64.3131 21.4857 64.5065C21.4083 64.6999 21.2729 64.8347 21.0795 64.9127C20.9828 64.9514 20.8861 64.9707 20.7894 64.9707C20.4606 64.9707 20.2285 64.8154 20.0931 64.5065C17.0758 57.2534 16.4085 45.1836 18.0912 28.299C18.8842 20.3496 20.006 12.7386 21.4567 5.4662C13.6233 6.20118 6.91175 7.04254 1.32202 7.98967H1.20598C1.01256 7.98967 0.848157 7.93225 0.712766 7.8162C0.577375 7.70015 0.490338 7.54542 0.451654 7.35201C0.432313 7.15859 0.480666 6.97968 0.596715 6.81528C0.712765 6.65148 0.87717 6.54993 1.08993 6.51065C1.38005 6.45202 1.84908 6.37525 2.49703 6.27794C3.14497 6.18184 4.38768 6.00293 6.22513 5.74181C8.06258 5.4807 9.95806 5.22926 11.9116 4.98749C13.8651 4.74572 16.2393 4.47977 19.0341 4.18965C21.829 3.89952 24.5755 3.65292 27.2736 3.44983C29.9718 3.24675 32.9069 3.07267 36.0789 2.92701C39.2509 2.78255 42.2682 2.71002 45.1308 2.71002Z" fill="#231F20"/>
<path d="M34.2221 14.6358C33.4678 15.3134 32.8676 17.2379 32.4233 20.4093C31.9779 23.582 31.9011 26.812 32.1912 30.0995C32.8295 27.9719 33.3663 25.9706 33.8014 24.0939C34.2366 22.2184 34.5455 20.6269 34.7298 19.3214C34.9136 18.0158 34.9909 16.9526 34.9619 16.1306C34.9329 15.308 34.8024 14.8099 34.5703 14.6358C34.4929 14.5778 34.4349 14.5488 34.3962 14.5488C34.3569 14.5488 34.2989 14.5778 34.2221 14.6358ZM55.4302 32.2319C55.623 32.2228 55.788 32.2802 55.9234 32.406C56.0582 32.5317 56.1307 32.6919 56.141 32.8847C56.1501 33.0787 56.0975 33.2431 55.9814 33.3779C52.0938 37.6917 48.9792 39.8477 46.6394 39.8477C46.4654 39.8477 46.3004 39.838 46.1462 39.8186C45.682 39.7606 45.2366 39.6156 44.8117 39.3835C44.3855 39.152 44.0283 38.9048 43.7382 38.6442C43.4481 38.3825 43.1289 37.9957 42.7808 37.4831C42.4326 36.9712 42.1715 36.5553 41.9975 36.2356C41.8234 35.9165 41.5719 35.448 41.2431 34.8285C40.2754 33.0303 39.483 31.8402 38.8641 31.26C38.5347 30.9511 38.2446 30.8441 37.9937 30.9414C37.5483 31.0762 37.0895 31.6275 36.6156 32.5945C36.1412 33.5616 35.735 34.6254 35.3971 35.7859C35.058 36.9464 34.783 38.1069 34.5703 39.2674C34.5122 39.5775 34.3279 39.7606 34.019 39.8186C33.709 39.8767 33.4678 39.7709 33.2937 39.5001C32.326 37.9141 31.6201 35.7569 31.1758 33.0303C30.731 30.3026 30.5569 27.6334 30.6536 25.0229C30.7503 22.4112 31.0356 20.0177 31.5095 17.8423C31.9827 15.6658 32.5775 14.2587 33.2937 13.6204C33.99 13.0021 34.696 12.9725 35.4116 13.5334C35.7404 13.7854 35.9816 14.1958 36.1369 14.7664C36.2911 15.337 36.369 15.9662 36.369 16.6522C36.369 17.3394 36.3007 18.1512 36.166 19.0893C36.0306 20.0279 35.8801 20.8977 35.7163 21.7004C35.5519 22.5037 35.3536 23.4079 35.1215 24.413C34.4252 27.3536 33.6129 30.2639 32.6845 33.1458C32.6645 33.2044 32.6355 33.2528 32.5974 33.2908C32.8676 34.7028 33.2067 35.9509 33.6129 37.0341C34.696 32.6048 36.0106 30.1285 37.5585 29.6069C38.3316 29.3554 39.0769 29.5676 39.7925 30.2445C40.1407 30.5546 40.4888 30.9553 40.837 31.4486C41.1851 31.9418 41.4553 32.3624 41.6493 32.7106C41.8421 33.0587 42.1135 33.552 42.4617 34.1908C42.8285 34.8865 43.1144 35.4088 43.3175 35.7569C43.5206 36.1051 43.7914 36.5161 44.1299 36.9899C44.4677 37.4644 44.8159 37.8126 45.1743 38.0344C45.5315 38.2568 45.9141 38.397 46.3203 38.4551C48.2539 38.6872 51.1261 36.6853 54.937 32.4501C55.0718 32.3147 55.2368 32.2422 55.4302 32.2319" fill="#231F20"/>
<path d="M57.5764 32.2465C57.2669 32.42 56.9858 32.6043 56.735 32.7971C57.7795 33.3006 58.9877 33.5515 60.3616 33.5515C60.9418 33.5515 61.4399 33.5037 61.8557 33.407C62.2716 33.3103 62.5665 33.2039 62.7406 33.0879C62.9147 32.9712 63.0204 32.8558 63.0597 32.7391C63.1365 32.5076 63.0204 32.2562 62.7116 31.9848C62.2087 31.5599 61.5221 31.3471 60.6517 31.3471C59.7813 31.3471 58.7562 31.6469 57.5764 32.2465ZM76.0138 32.232C76.1975 32.2604 76.3474 32.3529 76.4635 32.5076C76.5795 32.6624 76.623 32.8316 76.594 33.0147C76.565 33.1991 76.4731 33.3484 76.3184 33.465C73.2624 35.728 70.3273 37.4591 67.5131 38.6577C64.6989 39.8574 62.1894 40.457 59.9844 40.457C58.5338 40.457 57.2669 40.1953 56.1838 39.6731C55.3714 39.2669 54.7332 38.7405 54.269 38.0925C53.8048 37.4446 53.563 36.7241 53.5436 35.9311C53.5243 35.0027 53.8096 34.1027 54.3995 33.2329C54.9894 32.362 55.826 31.6276 56.9091 31.0274C57.8181 30.5245 58.7175 30.206 59.6072 30.07C60.497 29.9352 61.2706 29.9497 61.9282 30.1141C62.5859 30.2785 63.1468 30.5541 63.611 30.941C64.404 31.6366 64.6554 32.391 64.3653 33.2039C63.9398 34.3644 62.6052 34.9447 60.3616 34.9447C58.5628 34.9447 57.0058 34.5675 55.6906 33.8132C55.1683 34.4901 54.9175 35.1864 54.9362 35.9021C54.9556 36.9852 55.5745 37.8266 56.793 38.4262C57.7021 38.871 58.7562 39.0928 59.9554 39.0928C61.154 39.0928 62.3924 38.9145 63.669 38.5561C64.9455 38.1989 66.2801 37.696 67.6727 37.0475C69.0653 36.4001 70.4089 35.6839 71.7054 34.9012C73.0013 34.1178 74.2682 33.2716 75.5061 32.362C75.6602 32.2465 75.8294 32.203 76.0138 32.232" fill="#231F20"/>
<path d="M115.31 53.2508C119.759 46.2873 120.784 41.2784 118.385 38.2224C118.212 38.0096 118.018 37.7969 117.805 37.5835C115.89 38.2998 114.043 39.0976 112.264 39.9777C110.484 40.8577 108.623 41.9112 106.679 43.1394C104.736 44.3682 102.883 45.7989 101.124 47.4339C99.3635 49.0676 97.8451 50.8229 96.5686 52.6996C95.4468 54.343 94.7166 55.871 94.3781 57.2836C94.0397 58.6949 94.1213 59.9038 94.6248 60.9101C95.0116 61.6645 95.616 62.2683 96.438 62.7234C97.2601 63.1773 98.2416 63.4342 99.3828 63.4916C100.485 63.5503 101.675 63.4143 102.951 63.0855C104.228 62.7573 105.577 62.2157 106.999 61.4614C108.42 60.707 109.861 59.6233 111.321 58.212C112.781 56.7994 114.111 55.1463 115.31 53.2508M133.124 32.3474C133.279 32.4731 133.37 32.6375 133.4 32.84C133.429 33.0431 133.38 33.2274 133.254 33.3918C133.128 33.5562 132.959 33.6481 132.747 33.6675C132.322 33.7249 131.688 33.8264 130.846 33.9721C130.005 34.1171 128.419 34.4701 126.088 35.0304C123.757 35.5919 121.509 36.2592 119.343 37.0329C119.42 37.1296 119.497 37.2263 119.575 37.3224C122.399 40.9206 121.403 46.5 116.587 54.0632C115.349 55.9968 113.975 57.6988 112.467 59.1694C110.959 60.6387 109.465 61.7847 107.984 62.6068C106.505 63.4288 105.088 64.0332 103.735 64.42C102.381 64.8069 101.095 65.0003 99.876 65.0003H99.2958C97.8838 64.9235 96.6556 64.5844 95.6112 63.9854C94.5667 63.3859 93.7931 62.5826 93.2902 61.5768C92.6706 60.3196 92.5359 58.8502 92.884 57.1669C93.2322 55.4842 94.0445 53.715 95.3211 51.8576C95.998 50.8712 96.7427 49.9096 97.555 48.9715C98.3674 48.0328 99.3973 47.0029 100.645 45.8817C101.892 44.7593 103.246 43.6864 104.707 42.6607C106.167 41.6356 107.903 40.5869 109.914 39.5129C111.925 38.4394 114.072 37.4487 116.355 36.5397C115.02 35.8047 113.318 35.3109 111.248 35.0594C109.179 34.8086 107.003 34.7838 104.721 34.9869C102.439 35.19 100.079 35.5823 97.642 36.1625C96.0174 36.7234 94.3056 37.207 92.5068 37.6131C92.3134 37.6518 92.1297 37.6234 91.9556 37.5255C91.7815 37.4294 91.6655 37.2843 91.6075 37.0909C91.5688 36.9555 91.5639 36.8298 91.593 36.7138C91.622 36.5971 91.68 36.4913 91.767 36.394C91.8541 36.2979 91.9653 36.2199 92.1007 36.1625C93.6867 35.6397 95.3597 35.1664 97.1198 34.7409C99.0346 34.0833 100.809 33.3145 102.444 32.4344C104.078 31.5544 105.475 30.6695 106.636 29.7798C107.796 28.8901 108.855 27.9278 109.813 26.893C110.77 25.8583 111.548 24.8906 112.148 23.9918C112.747 23.0924 113.28 22.1598 113.743 21.1921C114.208 20.2244 114.545 19.403 114.759 18.726C114.972 18.0491 115.155 17.3721 115.31 16.6952C115.832 14.1808 115.832 11.8017 115.31 9.55811C114.788 7.31449 113.85 5.68012 112.496 4.65501C110.968 3.51386 109.257 3.45583 107.361 4.48094C101.83 7.44021 97.4003 12.3336 94.0735 19.1612C91.385 24.6929 89.4605 31.3368 88.3 39.0922C87.9519 41.4718 87.6811 43.9276 87.4877 46.4619C87.3324 52.3412 87.3136 58.27 87.4297 64.246C87.4297 64.4394 87.362 64.6092 87.2266 64.7537C87.0912 64.8987 86.922 64.9809 86.7189 65.0003C86.5158 65.0196 86.3417 64.9616 86.1966 64.8262C86.0516 64.6914 85.9694 64.5264 85.95 64.3336C85.892 63.7534 85.8292 62.9162 85.7615 61.824C85.6932 60.7306 85.6599 58.6321 85.6599 55.5283C85.6599 52.424 85.7663 49.3819 85.979 46.4039C86.1338 41.143 86.4046 35.9739 86.7914 30.8968C87.1782 25.819 87.5651 21.637 87.9519 18.3489C88.3387 15.0602 88.7685 11.9468 89.2429 9.00688C89.7168 6.06695 90.0505 4.11828 90.2439 3.16087C90.4373 2.20346 90.5818 1.50233 90.6791 1.05687C90.7177 0.864057 90.829 0.708716 91.0127 0.593271C91.1965 0.477221 91.385 0.443374 91.5784 0.491728C91.7719 0.540082 91.9266 0.651297 92.0426 0.825372C92.1587 0.999446 92.1877 1.19286 92.1297 1.40562C92.0717 1.6764 91.975 2.13093 91.8396 2.76921C91.7042 3.40688 91.4721 4.68886 91.1433 6.61335C90.8145 8.53784 90.4947 10.5881 90.1859 12.764C89.8764 14.9393 89.5373 17.7154 89.1704 21.0906C88.8029 24.4657 88.4935 27.9133 88.242 31.4329C89.3832 26.5981 90.8719 22.294 92.7099 18.523C96.1914 11.4052 100.833 6.2791 106.636 3.14636C107.834 2.50809 109.014 2.21737 110.175 2.27539C111.336 2.33402 112.409 2.73052 113.395 3.46551C115.001 4.68342 116.118 6.53599 116.746 9.02078C117.375 11.5068 117.38 14.1711 116.761 17.0143C115.794 21.5397 113.483 25.5343 109.827 28.9958C107.951 30.7759 105.785 32.3329 103.328 33.6675C105.301 33.4547 107.173 33.358 108.942 33.3767C110.712 33.3961 112.409 33.6197 114.034 34.0446C115.658 34.4701 117.011 35.0794 118.095 35.8724C118.115 35.8724 118.134 35.8676 118.153 35.8579C118.172 35.8482 118.193 35.8428 118.212 35.8428C119.662 35.3212 121.146 34.8376 122.665 34.3928C124.183 33.9473 125.474 33.5998 126.538 33.3477C127.602 33.0969 128.642 32.8744 129.657 32.681C130.672 32.4876 131.359 32.3613 131.717 32.3039C132.074 32.2458 132.36 32.2072 132.573 32.1872C132.785 32.1685 132.969 32.2217 133.124 32.3474" fill="#231F20"/>
<path d="M134.545 32.2465C134.235 32.42 133.955 32.6043 133.703 32.7971C134.748 33.3006 135.957 33.5515 137.33 33.5515C137.91 33.5515 138.409 33.5037 138.825 33.407C139.241 33.3103 139.536 33.2039 139.71 33.0879C139.884 32.9712 139.989 32.8558 140.028 32.7391C140.105 32.5076 139.989 32.2562 139.681 31.9848C139.177 31.5599 138.49 31.3471 137.621 31.3471C136.75 31.3471 135.725 31.6469 134.545 32.2465ZM152.983 32.232C153.167 32.2604 153.316 32.3529 153.432 32.5076C153.548 32.6624 153.592 32.8316 153.563 33.0147C153.534 33.1991 153.442 33.3484 153.287 33.465C150.231 35.728 147.296 37.4591 144.482 38.6577C141.667 39.8574 139.158 40.457 136.953 40.457C135.503 40.457 134.235 40.1953 133.152 39.6731C132.34 39.2669 131.702 38.7405 131.237 38.0925C130.774 37.4446 130.532 36.7241 130.513 35.9311C130.493 35.0027 130.779 34.1027 131.369 33.2329C131.958 32.362 132.795 31.6276 133.878 31.0274C134.787 30.5245 135.687 30.206 136.576 30.07C137.465 29.9352 138.239 29.9497 138.897 30.1141C139.554 30.2785 140.116 30.5541 140.579 30.941C141.373 31.6366 141.624 32.391 141.334 33.2039C140.908 34.3644 139.574 34.9447 137.33 34.9447C135.532 34.9447 133.975 34.5675 132.66 33.8132C132.137 34.4901 131.886 35.1864 131.905 35.9021C131.925 36.9852 132.543 37.8266 133.762 38.4262C134.67 38.871 135.725 39.0928 136.924 39.0928C138.123 39.0928 139.361 38.9145 140.638 38.5561C141.914 38.1989 143.248 37.696 144.642 37.0475C146.034 36.4001 147.378 35.6839 148.674 34.9012C149.97 34.1178 151.237 33.2716 152.475 32.362C152.629 32.2465 152.798 32.203 152.983 32.232" fill="#231F20"/>
<path d="M152.678 38.6568C152.813 38.7535 153.001 38.7686 153.244 38.7003C153.486 38.6326 153.747 38.5262 154.027 38.3812C154.307 38.2361 154.636 37.9853 155.014 37.6269C155.391 37.269 155.772 36.849 156.16 36.3648C156.546 35.8813 156.972 35.2769 157.436 34.5515C157.9 33.8262 158.355 33.0187 158.8 32.129C157.949 31.2973 157.107 30.8815 156.276 30.8815C156.16 30.8815 156.043 30.8911 155.927 30.9111C154.651 31.1232 153.539 32.4288 152.591 34.8272C152.224 35.8329 152.059 36.684 152.098 37.3803C152.136 38.0766 152.33 38.5021 152.678 38.6568ZM173.523 32.2305C173.707 32.2596 173.857 32.3472 173.973 32.4917C174.09 32.6367 174.137 32.806 174.118 32.9994C174.099 33.1928 174.012 33.3475 173.857 33.4636C168.674 37.5066 164.814 39.5272 162.281 39.5272C161.507 39.5272 160.84 39.3338 160.279 38.9469C159.254 38.2319 158.732 36.9451 158.713 35.0883C157.707 36.713 156.716 37.9563 155.739 38.8164C154.762 39.6771 153.857 40.1074 153.026 40.1074C152.697 40.1074 152.389 40.0494 152.098 39.9333C151.343 39.5852 150.894 38.8889 150.749 37.8445C150.604 36.8 150.792 35.6298 151.314 34.3339C152.456 31.4327 153.926 29.837 155.724 29.5469C156.923 29.3535 158.132 29.7597 159.351 30.7654C159.409 30.5339 159.466 30.3302 159.524 30.1568C159.583 29.9627 159.694 29.8225 159.859 29.7355C160.022 29.6484 160.196 29.6388 160.38 29.7065C160.565 29.7748 160.7 29.8908 160.786 30.0552C160.874 30.219 160.888 30.3883 160.83 30.5623C160.501 31.6455 160.279 32.7286 160.163 33.8117C159.95 35.9006 160.25 37.2352 161.063 37.8154C161.372 38.0288 161.773 38.1346 162.267 38.1346C162.76 38.1346 163.446 38.004 164.327 37.7429C165.207 37.4818 166.396 36.8919 167.896 35.9738C169.393 35.055 171.1 33.851 173.015 32.3611C173.17 32.2457 173.339 32.2015 173.523 32.2305" fill="#231F20"/>
<path d="M193.89 32.2169C194.074 32.2362 194.224 32.3239 194.34 32.4786C194.456 32.6327 194.5 32.8074 194.47 33.0002C194.441 33.1936 194.349 33.3484 194.195 33.4644C191.119 35.728 188.174 37.4591 185.361 38.6577C182.546 39.8574 180.037 40.457 177.832 40.457C176.4 40.457 175.143 40.1953 174.06 39.6731C173.248 39.2669 172.609 38.7405 172.145 38.0925C171.682 37.444 171.439 36.7338 171.42 35.9595C171.401 35.0311 171.686 34.1317 172.276 33.2619C172.866 32.391 173.702 31.656 174.786 31.0564C175.54 30.6315 176.279 30.3311 177.005 30.1576C177.731 29.9835 178.359 29.9352 178.891 30.0126C179.422 30.0893 179.838 30.1715 180.138 30.2592C180.438 30.3456 180.704 30.4574 180.936 30.5922C181.845 31.115 182.309 31.7817 182.328 32.5941C182.348 32.7875 182.29 32.9525 182.154 33.0873C182.019 33.2233 181.855 33.2904 181.662 33.2904C181.468 33.2904 181.303 33.2281 181.168 33.1018C181.033 32.9767 180.965 32.8165 180.965 32.6231C180.946 32.3329 180.704 32.0531 180.24 31.7817C179.911 31.5889 179.519 31.4626 179.065 31.4045C178.61 31.3471 178.059 31.3858 177.411 31.5212C176.763 31.656 176.11 31.908 175.453 32.2755C174.602 32.7391 173.944 33.2952 173.48 33.9431C173.016 34.5917 172.793 35.2445 172.812 35.9021C172.832 37.0039 173.451 37.8459 174.669 38.4256C175.559 38.871 176.608 39.0928 177.817 39.0928C179.026 39.0928 180.264 38.9145 181.531 38.5561C182.797 38.1983 184.131 37.6954 185.535 37.0475C186.937 36.4001 188.286 35.6839 189.582 34.9005C190.877 34.1178 192.144 33.2619 193.382 32.3329C193.537 32.2362 193.706 32.1982 193.89 32.2169Z" fill="#231F20"/>
<path d="M196.632 14.6358C195.878 15.3134 195.278 17.2379 194.833 20.4093C194.388 23.582 194.311 26.812 194.602 30.0995C195.239 27.9719 195.776 25.9706 196.212 24.0939C196.646 22.2184 196.956 20.6269 197.14 19.3214C197.323 18.0158 197.401 16.9526 197.372 16.1306C197.343 15.308 197.212 14.8099 196.98 14.6358C196.903 14.5778 196.845 14.5488 196.806 14.5488C196.767 14.5488 196.709 14.5778 196.632 14.6358ZM217.84 32.2319C218.033 32.2228 218.198 32.2802 218.333 32.406C218.469 32.5317 218.541 32.6919 218.551 32.8847C218.56 33.0787 218.507 33.2431 218.391 33.3779C214.504 37.6917 211.39 39.8477 209.049 39.8477C208.875 39.8477 208.711 39.838 208.557 39.8186C208.092 39.7606 207.647 39.6156 207.222 39.3835C206.796 39.152 206.439 38.9048 206.148 38.6442C205.858 38.3825 205.539 37.9957 205.191 37.4831C204.842 36.9712 204.581 36.5553 204.407 36.2356C204.233 35.9165 203.982 35.448 203.653 34.8285C202.686 33.0303 201.893 31.8402 201.275 31.26C200.945 30.9511 200.654 30.8441 200.404 30.9414C199.959 31.0762 199.499 31.6275 199.025 32.5945C198.552 33.5616 198.145 34.6254 197.807 35.7859C197.468 36.9464 197.193 38.1069 196.98 39.2674C196.922 39.5775 196.738 39.7606 196.429 39.8186C196.119 39.8767 195.878 39.7709 195.704 39.5001C194.736 37.9141 194.03 35.7569 193.586 33.0303C193.141 30.3026 192.967 27.6334 193.064 25.0229C193.161 22.4112 193.446 20.0177 193.92 17.8423C194.393 15.6658 194.988 14.2587 195.704 13.6204C196.4 13.0021 197.106 12.9725 197.821 13.5334C198.15 13.7854 198.392 14.1958 198.547 14.7664C198.701 15.337 198.779 15.9662 198.779 16.6522C198.779 17.3394 198.711 18.1512 198.576 19.0893C198.44 20.0279 198.29 20.8977 198.127 21.7004C197.962 22.5037 197.763 23.4079 197.531 24.413C196.835 27.3536 196.023 30.2639 195.094 33.1458C195.075 33.2044 195.046 33.2528 195.007 33.2908C195.278 34.7028 195.616 35.9509 196.023 37.0341C197.106 32.6048 198.421 30.1285 199.969 29.6069C200.742 29.3554 201.487 29.5676 202.202 30.2445C202.55 30.5546 202.899 30.9553 203.247 31.4486C203.596 31.9418 203.866 32.3624 204.059 32.7106C204.252 33.0587 204.524 33.552 204.871 34.1908C205.239 34.8865 205.524 35.4088 205.727 35.7569C205.93 36.1051 206.201 36.5161 206.54 36.9899C206.878 37.4644 207.226 37.8126 207.584 38.0344C207.942 38.2568 208.325 38.397 208.731 38.4551C210.664 38.6872 213.536 36.6853 217.347 32.4501C217.482 32.3147 217.647 32.2422 217.84 32.2319" fill="#231F20"/>
</svg>
