<svg width="48" height="48" viewBox="0 0 48 48" fill="none" xmlns="http://www.w3.org/2000/svg">
<path d="M44.1844 1.0957H3.82044C1.70741 1.0957 0 2.80151 0 4.91133V43.0885C0 45.1919 1.70741 46.9025 3.82044 46.9025H44.1844C46.2878 46.9025 48 45.1935 48 43.0885V4.91133C47.9984 2.80151 46.2862 1.0957 44.1844 1.0957ZM32.2645 14.6957C31.2721 14.1153 30.485 13.6568 29.4958 13.6568C28.5275 13.6568 27.7002 13.8989 27.277 14.3061C26.8537 14.7101 26.6437 15.4925 26.6437 16.6484V18.359H31.8204L30.6998 23.1173H26.6437V38.9282H20.1411V23.1173H17.1062V18.359H20.1443V16.5426C20.1443 14.63 20.3735 13.4853 20.8257 12.541C21.2762 11.5999 22.1499 10.5514 23.3651 9.95823C24.5788 9.36665 26.3743 9.06845 28.2325 9.06845C30.1371 9.06845 31.6248 9.70332 33.4493 10.2147L32.2645 14.6957Z" fill="#4F4F4F"/>
</svg>
