<svg width="50" height="50" viewBox="0 0 50 50" fill="none" xmlns="http://www.w3.org/2000/svg">
<rect width="50" height="50" rx="5" fill="white"/>
<path d="M29.1436 26.6895L29.3494 26.8953L37.75 35.7084V27.6229C37.75 27.0016 38.2537 26.498 38.875 26.498C39.4445 26.498 39.9153 26.9213 39.9898 27.4703L40 27.6229V35.8755C40 38.069 38.2874 39.8626 36.1262 39.9924L35.875 40H27.625C27.0037 40 26.5 39.4964 26.5 38.8751C26.5 38.3057 26.9233 37.835 27.4723 37.7605L27.625 37.7503L35.551 37.7497L27.1777 28.9648C27.1443 28.9297 27.1101 28.8953 27.0748 28.862C25.9381 27.7796 24.174 27.7645 23.02 28.786L22.8336 28.9658L14.467 37.7497L22.375 37.7503L22.5277 37.7605C23.0767 37.835 23.5 38.3057 23.5 38.8751C23.5 39.4446 23.0767 39.9153 22.5277 39.9897L22.375 40H14.125L13.8737 39.9924C11.799 39.8677 10.1377 38.2098 10.0081 36.1366L10 35.8755V27.6229L10.0103 27.4703C10.0848 26.9213 10.5554 26.498 11.125 26.498C11.6946 26.498 12.1652 26.9213 12.2397 27.4703L12.25 27.6229V35.7279L20.6609 26.8973C22.946 24.4977 26.7439 24.4049 29.1436 26.6895ZM22.375 10C22.9963 10 23.5 10.5036 23.5 11.1249C23.5 11.6943 23.0767 12.165 22.5277 12.2395L22.375 12.2497H14.125C13.1542 12.2497 12.3557 12.9875 12.2597 13.9328L12.25 14.1245V22.3771C12.25 22.9983 11.7463 23.502 11.125 23.502C10.5554 23.502 10.0848 23.0787 10.0103 22.5296L10 22.3771V14.1245C10 11.931 11.7125 10.1374 13.8737 10.0075L14.125 10H22.375ZM35.875 10L36.1262 10.0075C38.201 10.1322 39.8623 11.7902 39.9919 13.8633L40 14.1245V22.3771L39.9898 22.5296C39.9153 23.0787 39.4445 23.502 38.875 23.502C38.3055 23.502 37.8347 23.0787 37.7602 22.5296L37.75 22.3771V14.1245L37.7402 13.9328C37.6507 13.0505 36.9492 12.349 36.0667 12.2594L35.875 12.2497H27.625L27.4723 12.2395C26.9233 12.165 26.5 11.6943 26.5 11.1249C26.5 10.5554 26.9233 10.0848 27.4723 10.0103L27.625 10H35.875ZM31.0047 15.9993C32.6614 15.9993 34.0047 17.3423 34.0047 18.9989C34.0047 20.6556 32.6614 21.9986 31.0047 21.9986C29.3477 21.9986 28.0047 20.6556 28.0047 18.9989C28.0047 17.3423 29.3477 15.9993 31.0047 15.9993Z" fill="#212121" fill-opacity="0.5"/>
</svg>
