<svg width="40" height="40" viewBox="0 0 40 40" fill="none" xmlns="http://www.w3.org/2000/svg">
<rect width="40" height="40" rx="5" fill="white"/>
<path d="M22.7624 21.1277L22.8996 21.2649L28.5 27.141V21.75C28.5 21.3358 28.8358 21 29.25 21C29.6297 21 29.9435 21.2822 29.9932 21.6483L30 21.75V27.2524C30 28.7149 28.8583 29.9108 27.4175 29.9973L27.25 30.0024H21.75C21.3358 30.0024 21 29.6666 21 29.2524C21 28.8727 21.2822 28.5589 21.6482 28.5092L21.75 28.5024L27.034 28.502L21.4518 22.6447C21.4295 22.6213 21.4067 22.5984 21.3832 22.5762C20.6254 21.8545 19.4493 21.8444 18.68 22.5255L18.5557 22.6454L12.978 28.502L18.25 28.5024L18.3518 28.5092C18.7178 28.5589 19 28.8727 19 29.2524C19 29.6321 18.7178 29.9459 18.3518 29.9955L18.25 30.0024H12.75L12.5825 29.9973C11.1993 29.9142 10.0918 28.8088 10.0054 27.4265L10 27.2524V21.75L10.0069 21.6483C10.0565 21.2822 10.3703 21 10.75 21C11.1297 21 11.4435 21.2822 11.4931 21.6483L11.5 21.75V27.154L17.1073 21.2662C18.6307 19.6663 21.1626 19.6044 22.7624 21.1277ZM18.25 10C18.6642 10 19 10.3358 19 10.75C19 11.1297 18.7178 11.4435 18.3518 11.4932L18.25 11.5H12.75C12.1028 11.5 11.5705 11.9919 11.5064 12.6222L11.5 12.75V18.2524C11.5 18.6666 11.1642 19.0024 10.75 19.0024C10.3703 19.0024 10.0565 18.7202 10.0069 18.3541L10 18.2524V12.75C10 11.2875 11.1417 10.0916 12.5825 10.005L12.75 10H18.25ZM27.25 10L27.4175 10.005C28.8007 10.0881 29.9082 11.1936 29.9946 12.5758L30 12.75V18.2524L29.9932 18.3541C29.9435 18.7202 29.6297 19.0024 29.25 19.0024C28.8703 19.0024 28.5565 18.7202 28.5068 18.3541L28.5 18.2524V12.75L28.4935 12.6222C28.4338 12.0339 27.9661 11.5662 27.3778 11.5065L27.25 11.5H21.75L21.6482 11.4932C21.2822 11.4435 21 11.1297 21 10.75C21 10.3703 21.2822 10.0565 21.6482 10.0069L21.75 10H27.25ZM24.0031 14C25.1076 14 26.0031 14.8954 26.0031 16C26.0031 17.1046 25.1076 18 24.0031 18C22.8985 18 22.0031 17.1046 22.0031 16C22.0031 14.8954 22.8985 14 24.0031 14Z" fill="#212121" fill-opacity="0.5"/>
</svg>
