<svg width="60" height="60" viewBox="0 0 60 60" fill="none" xmlns="http://www.w3.org/2000/svg">
<rect width="60" height="60" rx="5" fill="white"/>
<path d="M35.5248 32.2527L35.7992 32.5271L39.5617 36.4743C42.2486 39.2932 47 37.3914 47 33.4972C47 32.6689 47.6716 31.9973 48.5 31.9973C49.2594 31.9973 49.887 32.5617 49.9864 33.2938L50 33.4972V44.5007C50 47.4253 47.7166 49.8168 44.835 49.9898L44.5 50H33.5C32.6716 50 32 49.3285 32 48.5002C32 47.7409 32.5644 47.1133 33.2964 47.014L33.5 47.0004C37.4809 47.0001 39.5233 42.2314 36.7767 39.3498L32.9036 35.2864C32.859 35.2396 32.8134 35.1938 32.7664 35.1494C31.2508 33.7061 28.8986 33.6859 27.36 35.048L27.1114 35.2878L23.2282 39.3647C20.488 42.2415 22.527 47.0001 26.5 47.0004L26.7036 47.014C27.4356 47.1133 28 47.7409 28 48.5002C28 49.2595 27.4356 49.887 26.7036 49.9862L26.5 50H15.5L15.165 49.9898C12.3987 49.8236 10.1836 47.6131 10.0109 44.8488L10 44.5007V33.4972L10.0137 33.2938C10.113 32.5617 10.7406 31.9973 11.5 31.9973C12.2594 31.9973 12.887 32.5617 12.9863 33.2938L13 33.4972C13 37.3995 17.7619 39.3043 20.4533 36.4787L24.2145 32.5297C27.2614 29.3303 32.3252 29.2065 35.5248 32.2527ZM26.5 10C27.3284 10 28 10.6715 28 11.4998C28 12.2591 27.4356 12.8866 26.7036 12.986L26.5 12.9996H15.5C14.2056 12.9996 13.1409 13.9833 13.0129 15.2438L13 15.4993V26.5028C13 27.3311 12.3284 28.0026 11.5 28.0026C10.7406 28.0026 10.113 27.4383 10.0137 26.7062L10 26.5028V15.4993C10 12.5746 12.2834 10.1832 15.165 10.01L15.5 10H26.5ZM44.5 10L44.835 10.01C47.6014 10.1763 49.8164 12.3869 49.9892 15.151L50 15.4993V26.5028L49.9864 26.7062C49.887 27.4383 49.2594 28.0026 48.5 28.0026C47.7406 28.0026 47.113 27.4383 47.0136 26.7062L47 26.5028V15.4993L46.987 15.2438C46.8676 14.0673 45.9322 13.132 44.7556 13.0126L44.5 12.9996H33.5L33.2964 12.986C32.5644 12.8866 32 12.2591 32 11.4998C32 10.7405 32.5644 10.113 33.2964 10.0137L33.5 10H44.5ZM38.0062 17.999C40.2152 17.999 42.0062 19.7897 42.0062 21.9986C42.0062 24.2074 40.2152 25.9981 38.0062 25.9981C35.797 25.9981 34.0062 24.2074 34.0062 21.9986C34.0062 19.7897 35.797 17.999 38.0062 17.999Z" fill="#212121" fill-opacity="0.5"/>
</svg>
