<svg width="48" height="48" viewBox="0 0 48 48" fill="none" xmlns="http://www.w3.org/2000/svg">
<g clip-path="url(#clip0_1961_24476)">
<path d="M34.7432 15.8715C34.5223 15.2731 34.17 14.7314 33.7123 14.2869C33.2677 13.8291 32.7264 13.4768 32.1277 13.256C31.6421 13.0674 30.9126 12.8429 29.569 12.7817C28.1155 12.7155 27.6797 12.7012 24 12.7012C20.3199 12.7012 19.8842 12.7151 18.431 12.7814C17.0874 12.8429 16.3575 13.0674 15.8723 13.256C15.2736 13.4768 14.7319 13.8291 14.2877 14.2869C13.83 14.7314 13.4777 15.2727 13.2565 15.8715C13.0679 16.3571 12.8434 17.0869 12.7822 18.4305C12.7159 19.8837 12.7017 20.3195 12.7017 23.9995C12.7017 27.6792 12.7159 28.115 12.7822 29.5685C12.8434 30.9121 13.0679 31.6416 13.2565 32.1272C13.4777 32.726 13.8296 33.2672 14.2874 33.7118C14.7319 34.1696 15.2732 34.5219 15.8719 34.7427C16.3575 34.9316 17.0874 35.1561 18.431 35.2173C19.8842 35.2836 20.3196 35.2975 23.9996 35.2975C27.6801 35.2975 28.1158 35.2836 29.5686 35.2173C30.9122 35.1561 31.6421 34.9316 32.1277 34.7427C33.3296 34.2791 34.2795 33.3291 34.7432 32.1272C34.9318 31.6416 35.1562 30.9121 35.2178 29.5685C35.2841 28.115 35.298 27.6792 35.298 23.9995C35.298 20.3195 35.2841 19.8837 35.2178 18.4305C35.1566 17.0869 34.9321 16.3571 34.7432 15.8715ZM24 31.0758C20.0914 31.0758 16.923 27.9077 16.923 23.9991C16.923 20.0906 20.0914 16.9225 24 16.9225C27.9082 16.9225 31.0767 20.0906 31.0767 23.9991C31.0767 27.9077 27.9082 31.0758 24 31.0758ZM31.3564 18.2965C30.4431 18.2965 29.7026 17.556 29.7026 16.6427C29.7026 15.7294 30.4431 14.9889 31.3564 14.9889C32.2698 14.9889 33.0103 15.7294 33.0103 16.6427C33.0099 17.556 32.2698 18.2965 31.3564 18.2965Z" fill="#4F4F4F"/>
<path d="M28.5938 24C28.5938 26.5371 26.5371 28.5938 24 28.5938C21.4629 28.5938 19.4062 26.5371 19.4062 24C19.4062 21.4629 21.4629 19.4062 24 19.4062C26.5371 19.4062 28.5938 21.4629 28.5938 24Z" fill="#4F4F4F"/>
<path d="M44.5382 0H3.46179C1.5498 0 0 1.5498 0 3.46179V44.5382C0 46.4502 1.5498 48 3.46179 48H44.5382C46.4502 48 48 46.4502 48 44.5382V3.46179C48 1.5498 46.4502 0 44.5382 0V0ZM37.6981 29.6818C37.6315 31.1488 37.3982 32.1504 37.0576 33.0271C36.3417 34.8783 34.8783 36.3417 33.0271 37.0576C32.1508 37.3982 31.1488 37.6311 29.6821 37.6981C28.2125 37.7651 27.743 37.7812 24.0004 37.7812C20.2573 37.7812 19.7882 37.7651 18.3182 37.6981C16.8516 37.6311 15.8496 37.3982 14.9733 37.0576C14.0533 36.7115 13.2206 36.1692 12.5321 35.4679C11.8312 34.7798 11.2888 33.9467 10.9427 33.0271C10.6022 32.1508 10.3689 31.1488 10.3022 29.6821C10.2345 28.2122 10.2188 27.7427 10.2188 24C10.2188 20.2573 10.2345 19.7878 10.3019 18.3182C10.3685 16.8512 10.6014 15.8496 10.942 14.9729C11.2881 14.0533 11.8308 13.2202 12.5321 12.5321C13.2202 11.8308 14.0533 11.2885 14.9729 10.9424C15.8496 10.6018 16.8512 10.3689 18.3182 10.3019C19.7878 10.2349 20.2573 10.2188 24 10.2188C27.7427 10.2188 28.2122 10.2349 29.6818 10.3022C31.1488 10.3689 32.1504 10.6018 33.0271 10.942C33.9467 11.2881 34.7798 11.8308 35.4683 12.5321C36.1692 13.2206 36.7119 14.0533 37.0576 14.9729C37.3986 15.8496 37.6315 16.8512 37.6985 18.3182C37.7655 19.7878 37.7812 20.2573 37.7812 24C37.7812 27.7427 37.7655 28.2122 37.6981 29.6818Z" fill="#4F4F4F"/>
</g>
<defs>
<clipPath id="clip0_1961_24476">
<rect width="48" height="48" fill="white"/>
</clipPath>
</defs>
</svg>
