<svg width="48" height="48" viewBox="0 0 48 48" fill="none" xmlns="http://www.w3.org/2000/svg">
<path d="M27.1976 18.4129C28.97 16.787 31.081 15.9338 33.4769 15.753C30.6347 14.4892 27.6362 13.953 24.551 13.8928C21.0454 13.8238 17.6338 14.3406 14.376 15.707C16.8122 15.8556 18.9513 16.7043 20.759 18.3491C22.562 19.9898 23.6201 22.0364 24.0036 24.4441C24.3978 22.064 25.4267 20.0362 27.1976 18.4129Z" fill="#4F4F4F"/>
<path d="M34.0085 22.4688C32.2116 22.4688 30.7496 23.9149 30.7425 25.697C30.7358 27.4725 32.2049 28.9493 33.9855 28.9544C35.7671 28.9605 37.2316 27.4955 37.2306 25.7108C37.2296 23.923 35.7835 22.4688 34.0085 22.4688ZM34.0085 27.3535C33.0868 27.3535 32.3469 26.6264 32.3489 25.7251C32.351 24.7886 33.0699 24.0655 33.9978 24.0645C34.9072 24.0645 35.6512 24.8095 35.6436 25.7133C35.6339 26.6187 34.9021 27.3535 34.0085 27.3535Z" fill="#4F4F4F"/>
<path d="M13.9771 17.7991C9.66582 17.7613 5.9065 21.3608 5.98208 25.9438C6.05203 30.2189 9.57544 33.8418 14.0665 33.8041C18.459 33.7673 21.9901 30.1796 21.9982 25.8361C22.0049 21.3746 18.4319 17.7991 13.9771 17.7991ZM14.1068 30.6738C11.2171 30.8056 8.88608 28.5026 8.8922 25.7058C8.89782 22.8723 11.2319 20.7052 13.8719 20.7532C16.6136 20.7501 18.8389 22.9642 18.8308 25.7038C18.8236 28.4781 16.6381 30.5584 14.1068 30.6738Z" fill="#4F4F4F"/>
<path d="M13.8281 22.4688C12.0756 22.4728 10.6075 23.9506 10.6121 25.7093C10.6167 27.4883 12.0827 28.9508 13.8669 28.9554C15.6403 28.9595 17.1079 27.4832 17.1043 25.6991C17.0987 23.9001 15.6434 22.4657 13.8281 22.4688ZM13.8679 27.3709C12.9283 27.3719 12.2017 26.6458 12.2027 25.7006C12.2027 24.7728 12.9273 24.0517 13.8633 24.0517C14.7865 24.0507 15.5275 24.786 15.5316 25.7067C15.5351 26.6197 14.7865 27.3678 13.8679 27.3709Z" fill="#4F4F4F"/>
<path d="M33.8399 17.8299C29.4627 17.9197 26.0374 21.4462 25.998 25.8096C25.998 30.242 29.594 33.8629 34.01 33.846C38.4443 33.8302 42.0234 30.3114 42.0209 25.8295C42.0178 21.2108 38.2717 17.739 33.8399 17.8299ZM34.2009 30.6734C31.322 30.7843 29.02 28.4905 29.0205 25.7095C29.0215 22.8964 31.3414 20.7043 33.9941 20.7517C36.7378 20.7466 38.9601 22.9567 38.9601 25.6968C38.9601 28.4486 36.7761 30.5749 34.2009 30.6734Z" fill="#4F4F4F"/>
<path d="M45.4468 0H2.55319C1.14281 0 0 1.14281 0 2.55319V45.4468C0 46.8572 1.14281 48 2.55319 48H45.4468C46.8572 48 48 46.8572 48 45.4468V2.55319C48 1.14281 46.8572 0 45.4468 0ZM43.7581 28.2536C43.1147 30.8717 41.615 32.9122 39.334 34.3573C37.705 35.3913 35.904 35.8831 33.982 35.8933C33.1736 35.8984 32.3699 35.7896 31.5809 35.5859C29.6569 35.0865 28.0085 34.128 26.6492 32.6757C26.4689 32.4863 26.3009 32.2866 26.11 32.0701C25.3915 33.1414 24.6843 34.1939 23.9602 35.2749C23.2391 34.1974 22.5411 33.1537 21.8451 32.1151C21.7976 32.1401 21.7838 32.1437 21.7741 32.1518C21.7588 32.1646 21.744 32.1809 21.7323 32.1957C20.0885 34.1367 18.0214 35.3265 15.5025 35.7243C14.1013 35.9469 12.7139 35.8667 11.3535 35.4919C9.42434 34.9624 7.78519 33.9442 6.46111 32.4419C5.16715 30.9738 4.36238 29.2703 4.0606 27.3324C3.71438 25.5232 4.13566 23.7809 4.24136 23.3571C4.54621 22.1275 5.07677 20.9985 5.80545 19.9593C5.85702 19.8853 5.87438 19.7561 5.84987 19.6683C5.55268 18.577 5.04102 17.5859 4.44051 16.6356C4.28834 16.394 4.10553 16.1709 3.93702 15.9396C3.93702 15.9125 3.93702 15.886 3.93702 15.8579C3.97123 15.863 4.00391 15.8686 4.03762 15.8686C6.05617 15.8696 8.0737 15.8706 10.0933 15.8666C10.1806 15.8666 10.2786 15.8308 10.3532 15.7818C11.7712 14.8723 13.2827 14.1513 14.8708 13.5896C16.0146 13.1867 17.184 12.8717 18.3763 12.6403C19.5309 12.4167 20.6911 12.2594 21.8635 12.1828C24.7231 11.9622 27.0071 12.2645 28.5278 12.4769C29.6477 12.6357 30.746 12.9166 31.8306 13.2511C33.7231 13.8337 35.5088 14.6436 37.1888 15.6934C37.3057 15.7654 37.462 15.8119 37.5993 15.8119C39.5719 15.8201 41.5445 15.817 43.5161 15.8191C43.6749 15.8191 43.8327 15.8349 43.992 15.8441C43.992 15.8829 43.9981 15.8987 43.991 15.9079C43.8991 16.0504 43.8056 16.1903 43.7137 16.3307C43.0443 17.3571 42.4723 18.431 42.1348 19.6182C42.098 19.7459 42.0894 19.8526 42.1767 19.9772C43.9328 22.5003 44.4924 25.2684 43.7581 28.2536Z" fill="#4F4F4F"/>
</svg>
