<svg width="24" height="24" viewBox="0 0 24 24" fill="none" xmlns="http://www.w3.org/2000/svg">
<path fill-rule="evenodd" clip-rule="evenodd" d="M23.5 20.0009C23.5 21.3819 22.381 22.5009 21 22.5009H3C1.619 22.5009 0.5 21.3819 0.5 20.0009V5.5009C0.5 4.3964 1.3955 3.5009 2.5 3.5009H12.5855L16.635 2.0339C16.8915 1.9404 17.1755 2.0729 17.269 2.3284L17.6955 3.5009H19.5C20.6045 3.5009 21.5 4.3964 21.5 5.5009V6.5009C22.6045 6.5009 23.5 7.3964 23.5 8.5009V20.0009ZM2.5 4.5009C1.948 4.5009 1.5 4.9489 1.5 5.5009C1.5 6.0529 1.948 6.5009 2.5 6.5009H4.2225H4.317C4.3235 6.4984 4.3275 6.4929 4.334 6.4904L9.825 4.5009H2.5ZM17.039 4.5914L16.508 3.1294H16.5075L15.482 3.5009H15.4835L12.7265 4.5009H12.7215L7.202 6.5009H17.733L17.039 4.5914ZM20.5 5.5009C20.5 4.9489 20.052 4.5009 19.5 4.5009H18.0585L18.7855 6.5009H20.5V5.5009ZM21.5 7.5009H2.5C2.134 7.5009 1.795 7.3954 1.5 7.2234V20.0009C1.5 20.8294 2.172 21.5009 3 21.5009H21C21.8285 21.5009 22.5 20.8294 22.5 20.0009V16.5009H20.5C19.3955 16.5009 18.5 15.6054 18.5 14.5009C18.5 13.3964 19.3955 12.5009 20.5 12.5009H22.5V8.5009C22.5 7.9489 22.052 7.5009 21.5 7.5009ZM22.5 15.5009V13.5009H20.5C19.948 13.5009 19.5 13.9489 19.5 14.5009C19.5 15.0529 19.948 15.5009 20.5 15.5009H22.5ZM20.5 14.0009H21.5V15.0009H20.5V14.0009Z" fill="#2F80ED"/>
</svg>
